<?xml version="1.0" encoding="UTF-8" standalone="no"?>
<!DOCTYPE svg PUBLIC "-//W3C//DTD SVG 1.1//EN" "http://www.w3.org/Graphics/SVG/1.1/DTD/svg11.dtd">
<!-- Generated by Microsoft Visio, SVG Export CableCarrierPlates.svg Page-1 -->
<svg xmlns="http://www.w3.org/2000/svg" xmlns:xlink="http://www.w3.org/1999/xlink" xmlns:ev="http://www.w3.org/2001/xml-events"
		xmlns:v="http://schemas.microsoft.com/visio/2003/SVGExtensions/" width="8.5in" height="11in" viewBox="0 0 612 792"
		xml:space="preserve" color-interpolation-filters="sRGB" class="st2">
	<v:documentProperties v:langID="1033" v:viewMarkup="false">
		<v:userDefs>
			<v:ud v:nameU="msvNoAutoConnect" v:val="VT0(1):26"/>
		</v:userDefs>
	</v:documentProperties>

	<style type="text/css">
	<![CDATA[
		.st1 {fill:none;stroke:#000000;stroke-linecap:round;stroke-linejoin:round;stroke-width:0.75}
		.st2 {fill:none;fill-rule:evenodd;font-size:12px;overflow:visible;stroke-linecap:square;stroke-miterlimit:3}
	]]>
	</style>

	<g v:mID="0" v:index="1" v:groupContext="foregroundPage">
		<title>Page-1</title>
		<v:pageProperties v:drawingScale="1" v:pageScale="1" v:drawingUnits="19" v:shadowOffsetX="9" v:shadowOffsetY="-9"/>
		<g id="shape1-1" v:mID="1" v:groupContext="shape" transform="translate(0,-436.5)">
			<title>Rectangle</title>
			<v:userDefs>
				<v:ud v:nameU="visVersion" v:val="VT0(15):26"/>
			</v:userDefs>
			<rect x="0" y="436.5" width="108" height="355.5" class="st1"/>
		</g>
		<g id="shape1000-3" v:mID="1000" v:groupContext="shape" transform="translate(49.032,-773.532)">
			<title>Circle.1000</title>
			<v:userDefs>
				<v:ud v:nameU="visVersion" v:val="VT0(15):26"/>
			</v:userDefs>
			<path d="M0 787.03 A4.968 4.968 0 0 1 9.94 787.03 A4.968 4.968 0 1 1 0 787.03 Z" class="st1"/>
		</g>
		<g id="shape1003-5" v:mID="1003" v:groupContext="shape" transform="translate(53.5723,-466.831)">
			<title>Circle.1003</title>
			<v:userDefs>
				<v:ud v:nameU="visVersion" v:val="VT0(15):26"/>
			</v:userDefs>
			<path d="M0 786.33 A5.66929 5.66929 0 0 1 11.34 786.33 A5.66929 5.66929 0 1 1 0 786.33 Z" class="st1"/>
		</g>
		<g id="shape1004-7" v:mID="1004" v:groupContext="shape" transform="translate(79.0891,-466.831)">
			<title>Circle.1004</title>
			<v:userDefs>
				<v:ud v:nameU="visVersion" v:val="VT0(15):26"/>
			</v:userDefs>
			<path d="M0 786.33 A5.66929 5.66929 0 0 1 11.34 786.33 A5.66929 5.66929 0 1 1 0 786.33 Z" class="st1"/>
		</g>
		<g id="shape1023-9" v:mID="1023" v:groupContext="shape" transform="translate(49.032,-728.532)">
			<title>Circle.1023</title>
			<v:userDefs>
				<v:ud v:nameU="visVersion" v:val="VT0(15):26"/>
			</v:userDefs>
			<path d="M0 787.03 A4.968 4.968 0 0 1 9.94 787.03 A4.968 4.968 0 1 1 0 787.03 Z" class="st1"/>
		</g>
		<g id="shape1051-11" v:mID="1051" v:groupContext="shape" transform="translate(111.6,-540)">
			<title>Rectangle.1051</title>
			<v:userDefs>
				<v:ud v:nameU="visVersion" v:val="VT0(15):26"/>
			</v:userDefs>
			<rect x="0" y="540" width="108" height="252" class="st1"/>
		</g>
		<g id="shape1052-13" v:mID="1052" v:groupContext="shape" transform="translate(156.6,-747)">
			<title>Circle.1052</title>
			<v:userDefs>
				<v:ud v:nameU="visVersion" v:val="VT0(15):26"/>
			</v:userDefs>
			<path d="M0 783 A9 9 0 0 1 18 783 A9 9 0 1 1 0 783 Z" class="st1"/>
		</g>
		<g id="shape1053-15" v:mID="1053" v:groupContext="shape" transform="translate(156.6,-675)">
			<title>Circle.1053</title>
			<v:userDefs>
				<v:ud v:nameU="visVersion" v:val="VT0(15):26"/>
			</v:userDefs>
			<path d="M0 783 A9 9 0 0 1 18 783 A9 9 0 1 1 0 783 Z" class="st1"/>
		</g>
		<g id="shape1055-17" v:mID="1055" v:groupContext="shape" transform="translate(147.172,-570.331)">
			<title>Circle.1055</title>
			<v:userDefs>
				<v:ud v:nameU="visVersion" v:val="VT0(15):26"/>
			</v:userDefs>
			<path d="M0 786.33 A5.66929 5.66929 0 0 1 11.34 786.33 A5.66929 5.66929 0 1 1 0 786.33 Z" class="st1"/>
		</g>
		<g id="shape1056-19" v:mID="1056" v:groupContext="shape" transform="translate(172.689,-570.331)">
			<title>Circle.1056</title>
			<v:userDefs>
				<v:ud v:nameU="visVersion" v:val="VT0(15):26"/>
			</v:userDefs>
			<path d="M0 786.33 A5.66929 5.66929 0 0 1 11.34 786.33 A5.66929 5.66929 0 1 1 0 786.33 Z" class="st1"/>
		</g>
		<g id="shape1060-21" v:mID="1060" v:groupContext="shape" transform="translate(18,-454.5)">
			<title>Rectangle.1060</title>
			<v:userDefs>
				<v:ud v:nameU="visVersion" v:val="VT0(15):26"/>
			</v:userDefs>
			<rect x="0" y="756" width="18" height="36" class="st1"/>
		</g>
		<g id="shape1061-23" v:mID="1061" v:groupContext="shape" transform="translate(0,-180)">
			<title>Rectangle.1061</title>
			<v:userDefs>
				<v:ud v:nameU="visVersion" v:val="VT0(15):26"/>
			</v:userDefs>
			<rect x="0" y="540" width="108" height="252" class="st1"/>
		</g>
		<g id="shape1062-25" v:mID="1062" v:groupContext="shape" transform="translate(45,-387)">
			<title>Circle.1062</title>
			<v:userDefs>
				<v:ud v:nameU="visVersion" v:val="VT0(15):26"/>
			</v:userDefs>
			<path d="M0 783 A9 9 0 0 1 18 783 A9 9 0 1 1 0 783 Z" class="st1"/>
		</g>
		<g id="shape1063-27" v:mID="1063" v:groupContext="shape" transform="translate(45,-315)">
			<title>Circle.1063</title>
			<v:userDefs>
				<v:ud v:nameU="visVersion" v:val="VT0(15):26"/>
			</v:userDefs>
			<path d="M0 783 A9 9 0 0 1 18 783 A9 9 0 1 1 0 783 Z" class="st1"/>
		</g>
		<g id="shape1065-29" v:mID="1065" v:groupContext="shape" transform="translate(35.5723,-210.331)">
			<title>Circle.1065</title>
			<v:userDefs>
				<v:ud v:nameU="visVersion" v:val="VT0(15):26"/>
			</v:userDefs>
			<path d="M0 786.33 A5.66929 5.66929 0 0 1 11.34 786.33 A5.66929 5.66929 0 1 1 0 786.33 Z" class="st1"/>
		</g>
		<g id="shape1066-31" v:mID="1066" v:groupContext="shape" transform="translate(61.0891,-210.331)">
			<title>Circle.1066</title>
			<v:userDefs>
				<v:ud v:nameU="visVersion" v:val="VT0(15):26"/>
			</v:userDefs>
			<path d="M0 786.33 A5.66929 5.66929 0 0 1 11.34 786.33 A5.66929 5.66929 0 1 1 0 786.33 Z" class="st1"/>
		</g>
		<g id="shape1067-33" v:mID="1067" v:groupContext="shape" transform="translate(112.909,-180)">
			<title>Rectangle.1067</title>
			<v:userDefs>
				<v:ud v:nameU="visVersion" v:val="VT0(15):26"/>
			</v:userDefs>
			<rect x="0" y="540" width="108" height="252" class="st1"/>
		</g>
		<g id="shape1068-35" v:mID="1068" v:groupContext="shape" transform="translate(157.909,-387)">
			<title>Circle.1068</title>
			<v:userDefs>
				<v:ud v:nameU="visVersion" v:val="VT0(15):26"/>
			</v:userDefs>
			<path d="M0 783 A9 9 0 0 1 18 783 A9 9 0 1 1 0 783 Z" class="st1"/>
		</g>
		<g id="shape1069-37" v:mID="1069" v:groupContext="shape" transform="translate(157.909,-315)">
			<title>Circle.1069</title>
			<v:userDefs>
				<v:ud v:nameU="visVersion" v:val="VT0(15):26"/>
			</v:userDefs>
			<path d="M0 783 A9 9 0 0 1 18 783 A9 9 0 1 1 0 783 Z" class="st1"/>
		</g>
		<g id="shape1071-39" v:mID="1071" v:groupContext="shape" transform="translate(148.481,-210.331)">
			<title>Circle.1071</title>
			<v:userDefs>
				<v:ud v:nameU="visVersion" v:val="VT0(15):26"/>
			</v:userDefs>
			<path d="M0 786.33 A5.66929 5.66929 0 0 1 11.34 786.33 A5.66929 5.66929 0 1 1 0 786.33 Z" class="st1"/>
		</g>
		<g id="shape1072-41" v:mID="1072" v:groupContext="shape" transform="translate(173.998,-210.331)">
			<title>Circle.1072</title>
			<v:userDefs>
				<v:ud v:nameU="visVersion" v:val="VT0(15):26"/>
			</v:userDefs>
			<path d="M0 786.33 A5.66929 5.66929 0 0 1 11.34 786.33 A5.66929 5.66929 0 1 1 0 786.33 Z" class="st1"/>
		</g>
		<g id="shape1073-43" v:mID="1073" v:groupContext="shape" transform="translate(13.032,-575.532)">
			<title>Circle.1073</title>
			<v:userDefs>
				<v:ud v:nameU="visVersion" v:val="VT0(15):26"/>
			</v:userDefs>
			<path d="M0 787.03 A4.968 4.968 0 0 1 9.94 787.03 A4.968 4.968 0 1 1 0 787.03 Z" class="st1"/>
		</g>
		<g id="shape1074-45" v:mID="1074" v:groupContext="shape" transform="translate(85.032,-575.532)">
			<title>Circle.1074</title>
			<v:userDefs>
				<v:ud v:nameU="visVersion" v:val="VT0(15):26"/>
			</v:userDefs>
			<path d="M0 787.03 A4.968 4.968 0 0 1 9.94 787.03 A4.968 4.968 0 1 1 0 787.03 Z" class="st1"/>
		</g>
		<g id="shape1075-47" v:mID="1075" v:groupContext="shape" transform="translate(13.032,-697.032)">
			<title>Circle.1075</title>
			<v:userDefs>
				<v:ud v:nameU="visVersion" v:val="VT0(15):26"/>
			</v:userDefs>
			<path d="M0 787.03 A4.968 4.968 0 0 1 9.94 787.03 A4.968 4.968 0 1 1 0 787.03 Z" class="st1"/>
		</g>
		<g id="shape1076-49" v:mID="1076" v:groupContext="shape" transform="translate(85.032,-697.032)">
			<title>Circle.1076</title>
			<v:userDefs>
				<v:ud v:nameU="visVersion" v:val="VT0(15):26"/>
			</v:userDefs>
			<path d="M0 787.03 A4.968 4.968 0 0 1 9.94 787.03 A4.968 4.968 0 1 1 0 787.03 Z" class="st1"/>
		</g>
		<g id="shape1078-51" v:mID="1078" v:groupContext="shape" transform="translate(13.032,-148.032)">
			<title>Circle.1078</title>
			<v:userDefs>
				<v:ud v:nameU="visVersion" v:val="VT0(15):26"/>
			</v:userDefs>
			<path d="M0 787.03 A4.968 4.968 0 0 1 9.94 787.03 A4.968 4.968 0 1 1 0 787.03 Z" class="st1"/>
		</g>
		<g id="shape1079-53" v:mID="1079" v:groupContext="shape" transform="translate(85.032,-148.032)">
			<title>Circle.1079</title>
			<v:userDefs>
				<v:ud v:nameU="visVersion" v:val="VT0(15):26"/>
			</v:userDefs>
			<path d="M0 787.03 A4.968 4.968 0 0 1 9.94 787.03 A4.968 4.968 0 1 1 0 787.03 Z" class="st1"/>
		</g>
		<g id="shape1080-55" v:mID="1080" v:groupContext="shape" transform="translate(0,-135)">
			<title>Rectangle.1080</title>
			<v:userDefs>
				<v:ud v:nameU="visVersion" v:val="VT0(15):26"/>
			</v:userDefs>
			<rect x="0" y="756" width="108" height="36" class="st1"/>
		</g>
		<g id="shape1081-57" v:mID="1081" v:groupContext="shape" transform="translate(125.532,-148.032)">
			<title>Circle.1081</title>
			<v:userDefs>
				<v:ud v:nameU="visVersion" v:val="VT0(15):26"/>
			</v:userDefs>
			<path d="M0 787.03 A4.968 4.968 0 0 1 9.94 787.03 A4.968 4.968 0 1 1 0 787.03 Z" class="st1"/>
		</g>
		<g id="shape1082-59" v:mID="1082" v:groupContext="shape" transform="translate(197.532,-148.032)">
			<title>Circle.1082</title>
			<v:userDefs>
				<v:ud v:nameU="visVersion" v:val="VT0(15):26"/>
			</v:userDefs>
			<path d="M0 787.03 A4.968 4.968 0 0 1 9.94 787.03 A4.968 4.968 0 1 1 0 787.03 Z" class="st1"/>
		</g>
		<g id="shape1083-61" v:mID="1083" v:groupContext="shape" transform="translate(112.5,-135)">
			<title>Rectangle.1083</title>
			<v:userDefs>
				<v:ud v:nameU="visVersion" v:val="VT0(15):26"/>
			</v:userDefs>
			<rect x="0" y="756" width="108" height="36" class="st1"/>
		</g>
		<g id="group1084-63" transform="translate(111.6,-463.154)" v:mID="1084" v:groupContext="group">
			<title>Sheet.1084</title>
			<g id="shape1057-64" v:mID="1057" v:groupContext="shape" transform="translate(49.032,-53.532)">
				<title>Circle.1057</title>
				<v:userDefs>
					<v:ud v:nameU="visVersion" v:val="VT0(15):26"/>
				</v:userDefs>
				<path d="M0 787.03 A4.968 4.968 0 0 1 9.94 787.03 A4.968 4.968 0 1 1 0 787.03 Z" class="st1"/>
			</g>
			<g id="shape1058-66" v:mID="1058" v:groupContext="shape" transform="translate(49.032,-8.532)">
				<title>Circle.1058</title>
				<v:userDefs>
					<v:ud v:nameU="visVersion" v:val="VT0(15):26"/>
				</v:userDefs>
				<path d="M0 787.03 A4.968 4.968 0 0 1 9.94 787.03 A4.968 4.968 0 1 1 0 787.03 Z" class="st1"/>
			</g>
			<g id="shape1059-68" v:mID="1059" v:groupContext="shape">
				<title>Rectangle.1059</title>
				<v:userDefs>
					<v:ud v:nameU="visVersion" v:val="VT0(15):26"/>
				</v:userDefs>
				<rect x="0" y="720" width="108" height="72" class="st1"/>
			</g>
		</g>
		<g id="group1086-70" transform="translate(0,-54)" v:mID="1086" v:groupContext="group">
			<title>Sheet.1086</title>
			<g id="shape1087-71" v:mID="1087" v:groupContext="shape" transform="translate(49.032,-53.532)">
				<title>Circle.1057</title>
				<v:userDefs>
					<v:ud v:nameU="visVersion" v:val="VT0(15):26"/>
				</v:userDefs>
				<path d="M0 787.03 A4.968 4.968 0 0 1 9.94 787.03 A4.968 4.968 0 1 1 0 787.03 Z" class="st1"/>
			</g>
			<g id="shape1088-73" v:mID="1088" v:groupContext="shape" transform="translate(49.032,-8.532)">
				<title>Circle.1058</title>
				<v:userDefs>
					<v:ud v:nameU="visVersion" v:val="VT0(15):26"/>
				</v:userDefs>
				<path d="M0 787.03 A4.968 4.968 0 0 1 9.94 787.03 A4.968 4.968 0 1 1 0 787.03 Z" class="st1"/>
			</g>
			<g id="shape1089-75" v:mID="1089" v:groupContext="shape">
				<title>Rectangle.1059</title>
				<v:userDefs>
					<v:ud v:nameU="visVersion" v:val="VT0(15):26"/>
				</v:userDefs>
				<rect x="0" y="720" width="108" height="72" class="st1"/>
			</g>
		</g>
		<g id="group1090-77" transform="translate(112.909,-54)" v:mID="1090" v:groupContext="group">
			<title>Sheet.1090</title>
			<g id="shape1091-78" v:mID="1091" v:groupContext="shape" transform="translate(49.032,-53.532)">
				<title>Circle.1057</title>
				<v:userDefs>
					<v:ud v:nameU="visVersion" v:val="VT0(15):26"/>
				</v:userDefs>
				<path d="M0 787.03 A4.968 4.968 0 0 1 9.94 787.03 A4.968 4.968 0 1 1 0 787.03 Z" class="st1"/>
			</g>
			<g id="shape1092-80" v:mID="1092" v:groupContext="shape" transform="translate(49.032,-8.532)">
				<title>Circle.1058</title>
				<v:userDefs>
					<v:ud v:nameU="visVersion" v:val="VT0(15):26"/>
				</v:userDefs>
				<path d="M0 787.03 A4.968 4.968 0 0 1 9.94 787.03 A4.968 4.968 0 1 1 0 787.03 Z" class="st1"/>
			</g>
			<g id="shape1093-82" v:mID="1093" v:groupContext="shape">
				<title>Rectangle.1059</title>
				<v:userDefs>
					<v:ud v:nameU="visVersion" v:val="VT0(15):26"/>
				</v:userDefs>
				<rect x="0" y="720" width="108" height="72" class="st1"/>
			</g>
		</g>
	</g>
</svg>
