<?xml version="1.0" encoding="UTF-8" standalone="no"?>
<!DOCTYPE svg PUBLIC "-//W3C//DTD SVG 1.1//EN" "http://www.w3.org/Graphics/SVG/1.1/DTD/svg11.dtd">
<!-- Generated by Microsoft Visio, SVG Export BeamSensorMount_Y_2X.svg Page-1 -->
<svg xmlns="http://www.w3.org/2000/svg" xmlns:xlink="http://www.w3.org/1999/xlink" xmlns:ev="http://www.w3.org/2001/xml-events"
		xmlns:v="http://schemas.microsoft.com/visio/2003/SVGExtensions/" width="8.5in" height="11in" viewBox="0 0 612 792"
		xml:space="preserve" color-interpolation-filters="sRGB" class="st2">
	<v:documentProperties v:langID="1033" v:viewMarkup="false">
		<v:userDefs>
			<v:ud v:nameU="msvNoAutoConnect" v:val="VT0(1):26"/>
		</v:userDefs>
	</v:documentProperties>

	<style type="text/css">
	<![CDATA[
		.st1 {fill:none;stroke:#000000;stroke-linecap:round;stroke-linejoin:round;stroke-width:0.75}
		.st2 {fill:none;fill-rule:evenodd;font-size:12px;overflow:visible;stroke-linecap:square;stroke-miterlimit:3}
	]]>
	</style>

	<g v:mID="0" v:index="1" v:groupContext="foregroundPage">
		<title>Page-1</title>
		<v:pageProperties v:drawingScale="1" v:pageScale="1" v:drawingUnits="19" v:shadowOffsetX="9" v:shadowOffsetY="-9"/>
		<g id="shape1-1" v:mID="1" v:groupContext="shape" transform="translate(0,-648)">
			<title>Rectangle</title>
			<v:userDefs>
				<v:ud v:nameU="visVersion" v:val="VT0(15):26"/>
			</v:userDefs>
			<rect x="0" y="648" width="54" height="144" class="st1"/>
		</g>
		<g id="shape1084-3" v:mID="1084" v:groupContext="shape" transform="translate(18,-675)">
			<title>Circle.1084</title>
			<v:userDefs>
				<v:ud v:nameU="visVersion" v:val="VT0(15):26"/>
			</v:userDefs>
			<path d="M0 783 A9 9 0 0 1 18 783 A9 9 0 1 1 0 783 Z" class="st1"/>
		</g>
		<g id="shape1086-5" v:mID="1086" v:groupContext="shape" transform="translate(23.4567,-738)">
			<title>Rounded Rectangle.1086</title>
			<v:userDefs>
				<v:ud v:nameU="CTypeTopLeftSnip" v:prompt="" v:val="VT0(0):5"/>
				<v:ud v:nameU="CTypeTopRightSnip" v:prompt="" v:val="VT0(0):5"/>
				<v:ud v:nameU="CTypeBotLeftSnip" v:prompt="" v:val="VT0(0):5"/>
				<v:ud v:nameU="CTypeBotRightSnip" v:prompt="" v:val="VT0(0):5"/>
				<v:ud v:nameU="CornerLockHoriz" v:prompt="" v:val="VT0(1):5"/>
				<v:ud v:nameU="CornerLockVert" v:prompt="" v:val="VT0(1):5"/>
				<v:ud v:nameU="CornerLockDiag" v:prompt="" v:val="VT0(0):5"/>
				<v:ud v:nameU="TopLeftOffset" v:prompt="" v:val="VT0(0.15):1"/>
				<v:ud v:nameU="TopRightOffset" v:prompt="" v:val="VT0(0.15):1"/>
				<v:ud v:nameU="BotLeftOffset" v:prompt="" v:val="VT0(0.15):1"/>
				<v:ud v:nameU="BotRightOffset" v:prompt="" v:val="VT0(0.15):1"/>
				<v:ud v:nameU="visVersion" v:prompt="" v:val="VT0(15):26"/>
				<v:ud v:nameU="TopLeftOffset" v:prompt="" v:val="VT0(0.0098425196850394):1"/>
				<v:ud v:nameU="TopRightOffset" v:prompt="" v:val="VT0(0.0098425196850394):1"/>
				<v:ud v:nameU="BotLeftOffset" v:prompt="" v:val="VT0(0.0098425196850394):1"/>
				<v:ud v:nameU="BotRightOffset" v:prompt="" v:val="VT0(0.0098425196850394):1"/>
			</v:userDefs>
			<path d="M0.71 792 L6.38 792 a0.70865 0.70865 -180 0 0 0.708661 -0.708661 L7.09 756.71 a0.70865 0.70865 -180 0 0 -0.708661
						 -0.708661 L0.71 756 a0.70865 0.70865 -180 0 0 -0.708661 0.708661 L0 791.29 a0.70865 0.70865 -180 0 0 0.708661
						 0.708661 Z" class="st1"/>
		</g>
		<g id="shape1087-7" v:mID="1087" v:groupContext="shape" transform="translate(54,792) rotate(180)">
			<title>Right Triangle.1087</title>
			<v:userDefs>
				<v:ud v:nameU="visVersion" v:val="VT0(15):26"/>
			</v:userDefs>
			<path d="M0 792 L18 792 L0 774 L0 792 Z" class="st1"/>
		</g>
		<g id="shape1088-9" v:mID="1088" v:groupContext="shape" transform="translate(792,0) rotate(90)">
			<title>Right Triangle.1088</title>
			<v:userDefs>
				<v:ud v:nameU="visVersion" v:val="VT0(15):26"/>
			</v:userDefs>
			<path d="M0 792 L18 792 L0 774 L0 792 Z" class="st1"/>
		</g>
		<g id="shape1089-11" v:mID="1089" v:groupContext="shape" transform="translate(56.16,-648)">
			<title>Rectangle.1089</title>
			<v:userDefs>
				<v:ud v:nameU="visVersion" v:val="VT0(15):26"/>
			</v:userDefs>
			<rect x="0" y="648" width="54" height="144" class="st1"/>
		</g>
		<g id="shape1090-13" v:mID="1090" v:groupContext="shape" transform="translate(74.16,-675)">
			<title>Circle.1090</title>
			<v:userDefs>
				<v:ud v:nameU="visVersion" v:val="VT0(15):26"/>
			</v:userDefs>
			<path d="M0 783 A9 9 0 0 1 18 783 A9 9 0 1 1 0 783 Z" class="st1"/>
		</g>
		<g id="shape1091-15" v:mID="1091" v:groupContext="shape" transform="translate(79.6167,-738)">
			<title>Rounded Rectangle.1091</title>
			<v:userDefs>
				<v:ud v:nameU="CTypeTopLeftSnip" v:prompt="" v:val="VT0(0):5"/>
				<v:ud v:nameU="CTypeTopRightSnip" v:prompt="" v:val="VT0(0):5"/>
				<v:ud v:nameU="CTypeBotLeftSnip" v:prompt="" v:val="VT0(0):5"/>
				<v:ud v:nameU="CTypeBotRightSnip" v:prompt="" v:val="VT0(0):5"/>
				<v:ud v:nameU="CornerLockHoriz" v:prompt="" v:val="VT0(1):5"/>
				<v:ud v:nameU="CornerLockVert" v:prompt="" v:val="VT0(1):5"/>
				<v:ud v:nameU="CornerLockDiag" v:prompt="" v:val="VT0(0):5"/>
				<v:ud v:nameU="TopLeftOffset" v:prompt="" v:val="VT0(0.15):1"/>
				<v:ud v:nameU="TopRightOffset" v:prompt="" v:val="VT0(0.15):1"/>
				<v:ud v:nameU="BotLeftOffset" v:prompt="" v:val="VT0(0.15):1"/>
				<v:ud v:nameU="BotRightOffset" v:prompt="" v:val="VT0(0.15):1"/>
				<v:ud v:nameU="visVersion" v:prompt="" v:val="VT0(15):26"/>
				<v:ud v:nameU="TopLeftOffset" v:prompt="" v:val="VT0(0.0098425196850394):1"/>
				<v:ud v:nameU="TopRightOffset" v:prompt="" v:val="VT0(0.0098425196850394):1"/>
				<v:ud v:nameU="BotLeftOffset" v:prompt="" v:val="VT0(0.0098425196850394):1"/>
				<v:ud v:nameU="BotRightOffset" v:prompt="" v:val="VT0(0.0098425196850394):1"/>
			</v:userDefs>
			<path d="M0.71 792 L6.38 792 a0.70865 0.70865 -180 0 0 0.708661 -0.708661 L7.09 756.71 a0.70865 0.70865 -180 0 0 -0.708661
						 -0.708661 L0.71 756 a0.70865 0.70865 -180 0 0 -0.708661 0.708661 L0 791.29 a0.70865 0.70865 -180 0 0 0.708661
						 0.708661 Z" class="st1"/>
		</g>
		<g id="shape1092-17" v:mID="1092" v:groupContext="shape" transform="translate(110.16,792) rotate(180)">
			<title>Right Triangle.1092</title>
			<v:userDefs>
				<v:ud v:nameU="visVersion" v:val="VT0(15):26"/>
			</v:userDefs>
			<path d="M0 792 L18 792 L0 774 L0 792 Z" class="st1"/>
		</g>
		<g id="shape1093-19" v:mID="1093" v:groupContext="shape" transform="translate(848.16,0) rotate(90)">
			<title>Right Triangle.1093</title>
			<v:userDefs>
				<v:ud v:nameU="visVersion" v:val="VT0(15):26"/>
			</v:userDefs>
			<path d="M0 792 L18 792 L0 774 L0 792 Z" class="st1"/>
		</g>
	</g>
</svg>
