<?xml version="1.0" encoding="UTF-8" standalone="no"?>
<!DOCTYPE svg PUBLIC "-//W3C//DTD SVG 1.1//EN" "http://www.w3.org/Graphics/SVG/1.1/DTD/svg11.dtd">
<!-- Generated by Microsoft Visio, SVG Export BeamSensorMountPlate_X.svg Page-1 -->
<svg xmlns="http://www.w3.org/2000/svg" xmlns:xlink="http://www.w3.org/1999/xlink" xmlns:ev="http://www.w3.org/2001/xml-events"
		xmlns:v="http://schemas.microsoft.com/visio/2003/SVGExtensions/" width="8.5in" height="11in" viewBox="0 0 612 792"
		xml:space="preserve" color-interpolation-filters="sRGB" class="st3">
	<v:documentProperties v:langID="1033" v:viewMarkup="false">
		<v:userDefs>
			<v:ud v:nameU="msvNoAutoConnect" v:val="VT0(1):26"/>
		</v:userDefs>
	</v:documentProperties>

	<style type="text/css">
	<![CDATA[
		.st1 {fill:none;stroke:#000000;stroke-linecap:round;stroke-linejoin:round;stroke-width:0.75}
		.st2 {stroke:#000000;stroke-linecap:round;stroke-linejoin:round;stroke-width:0.75}
		.st3 {fill:none;fill-rule:evenodd;font-size:12px;overflow:visible;stroke-linecap:square;stroke-miterlimit:3}
	]]>
	</style>

	<g v:mID="0" v:index="1" v:groupContext="foregroundPage">
		<title>Page-1</title>
		<v:pageProperties v:drawingScale="1" v:pageScale="1" v:drawingUnits="19" v:shadowOffsetX="9" v:shadowOffsetY="-9"/>
		<g id="shape1124-1" v:mID="1124" v:groupContext="shape" transform="translate(6.75659E-006,-702)">
			<title>Rectangle.1124</title>
			<v:userDefs>
				<v:ud v:nameU="visVersion" v:val="VT0(15):26"/>
			</v:userDefs>
			<rect x="0" y="702" width="161.575" height="90" class="st1"/>
		</g>
		<g id="shape1125-3" v:mID="1125" v:groupContext="shape" transform="translate(890.575,0) rotate(90)">
			<title>Right Triangle.1125</title>
			<v:userDefs>
				<v:ud v:nameU="visVersion" v:val="VT0(15):26"/>
			</v:userDefs>
			<path d="M0 792 L45 792 L0 747 L0 792 Z" class="st1"/>
		</g>
		<g id="shape1126-5" v:mID="1126" v:groupContext="shape" transform="translate(63,792) rotate(180)">
			<title>Right Triangle.1126</title>
			<v:userDefs>
				<v:ud v:nameU="visVersion" v:val="VT0(15):26"/>
			</v:userDefs>
			<path d="M0 792 L45 792 L0 747 L0 792 Z" class="st1"/>
		</g>
		<g id="shape1133-7" v:mID="1133" v:groupContext="shape" transform="translate(139.66,-744.435)">
			<title>Circle.1007</title>
			<v:userDefs>
				<v:ud v:nameU="visVersion" v:val="VT0(15):26"/>
			</v:userDefs>
			<path d="M0 784.26 A7.74 7.74 0 0 1 15.48 784.26 A7.74 7.74 0 1 1 0 784.26 Z" class="st1"/>
		</g>
		<g id="shape1134-9" v:mID="1134" v:groupContext="shape" transform="translate(6.43481,-744.435)">
			<title>Circle.1009</title>
			<v:userDefs>
				<v:ud v:nameU="visVersion" v:val="VT0(15):26"/>
			</v:userDefs>
			<path d="M0 784.26 A7.74 7.74 0 0 1 15.48 784.26 A7.74 7.74 0 1 1 0 784.26 Z" class="st1"/>
		</g>
		<g id="shape1145-11" v:mID="1145" v:groupContext="shape" transform="translate(-666.425,90) rotate(-90)">
			<title>Right Triangle.1145</title>
			<v:userDefs>
				<v:ud v:nameU="visVersion" v:val="VT0(15):26"/>
			</v:userDefs>
			<path d="M0 792 L18 792 L0 774 L0 792 Z" class="st1"/>
		</g>
		<g id="shape1146-13" v:mID="1146" v:groupContext="shape" transform="translate(36,-702)">
			<title>Right Triangle.1146</title>
			<v:userDefs>
				<v:ud v:nameU="visVersion" v:val="VT0(15):26"/>
			</v:userDefs>
			<path d="M0 792 L18 792 L0 774 L0 792 Z" class="st1"/>
		</g>
		<g id="shape1147-15" v:mID="1147" v:groupContext="shape" transform="translate(125.575,-720)">
			<title>Sheet.1147</title>
			<path d="M0 792 L36 792" class="st2"/>
		</g>
		<g id="shape1150-18" v:mID="1150" v:groupContext="shape" transform="translate(0,-720)">
			<title>Sheet.1150</title>
			<path d="M0 792 L36 792" class="st2"/>
		</g>
		<g id="shape1151-21" v:mID="1151" v:groupContext="shape" transform="translate(63,-747)">
			<title>Sheet.1151</title>
			<path d="M0 792 L35.58 792" class="st2"/>
		</g>
		<g id="shape1152-24" v:mID="1152" v:groupContext="shape" transform="translate(77.2452,-725.457)">
			<title>Circle.1152</title>
			<v:userDefs>
				<v:ud v:nameU="visVersion" v:val="VT0(15):26"/>
			</v:userDefs>
			<path d="M0 788.46 A3.5424 3.5424 0 0 1 7.08 788.46 A3.5424 3.5424 0 1 1 0 788.46 Z" class="st1"/>
		</g>
	</g>
</svg>
