<?xml version="1.0" encoding="UTF-8" standalone="no"?>
<!DOCTYPE svg PUBLIC "-//W3C//DTD SVG 1.1//EN" "http://www.w3.org/Graphics/SVG/1.1/DTD/svg11.dtd">
<!-- Generated by Microsoft Visio, SVG Export MinnowBoardMount.svg Page-2 -->
<svg xmlns="http://www.w3.org/2000/svg" xmlns:xlink="http://www.w3.org/1999/xlink" xmlns:ev="http://www.w3.org/2001/xml-events"
		xmlns:v="http://schemas.microsoft.com/visio/2003/SVGExtensions/" width="11in" height="8.5in" viewBox="0 0 792 612"
		xml:space="preserve" color-interpolation-filters="sRGB" class="st2">
	<v:documentProperties v:langID="1033" v:viewMarkup="false">
		<v:userDefs>
			<v:ud v:nameU="msvNoAutoConnect" v:val="VT0(1):26"/>
		</v:userDefs>
	</v:documentProperties>

	<style type="text/css">
	<![CDATA[
		.st1 {fill:none;stroke:#000000;stroke-linecap:round;stroke-linejoin:round;stroke-width:0.75}
		.st2 {fill:none;fill-rule:evenodd;font-size:12px;overflow:visible;stroke-linecap:square;stroke-miterlimit:3}
	]]>
	</style>

	<g v:mID="4" v:index="2" v:groupContext="foregroundPage">
		<title>Page-2</title>
		<v:pageProperties v:drawingScale="1" v:pageScale="1" v:drawingUnits="19" v:shadowOffsetX="9" v:shadowOffsetY="-9"/>
		<g id="shape37-1" v:mID="37" v:groupContext="shape" transform="translate(620.503,513.993) rotate(90)">
			<title>Circle.37</title>
			<v:userDefs>
				<v:ud v:nameU="visVersion" v:val="VT0(15):26"/>
			</v:userDefs>
			<path d="M0 607.75 A4.25197 4.25197 0 1 1 8.5 607.75 A4.25197 4.25197 0 0 1 0 607.75 Z" class="st1"/>
		</g>
		<g id="shape38-3" v:mID="38" v:groupContext="shape" transform="translate(612,505.49) rotate(90)">
			<title>Circle.38</title>
			<v:userDefs>
				<v:ud v:nameU="visVersion" v:val="VT0(15):26"/>
			</v:userDefs>
			<path d="M0 599.25 A12.7548 12.7548 0 0 1 25.51 599.25 A12.7548 12.7548 0 1 1 0 599.25 Z" class="st1"/>
		</g>
		<g id="shape67-5" v:mID="67" v:groupContext="shape" transform="translate(0,-108)">
			<title>Rectangle.67</title>
			<v:userDefs>
				<v:ud v:nameU="visVersion" v:val="VT0(15):26"/>
			</v:userDefs>
			<rect x="0" y="108" width="360" height="504" class="st1"/>
		</g>
		<g id="group6-7" transform="translate(44.64,-388.89)" v:mID="6" v:groupContext="group">
			<title>Sheet.6</title>
			<g id="shape2-8" v:mID="2" v:groupContext="shape" transform="translate(0,-187.2)">
				<title>Circle</title>
				<v:userDefs>
					<v:ud v:nameU="visVersion" v:val="VT0(15):26"/>
				</v:userDefs>
				<path d="M0 606.24 A5.76 5.76 0 0 1 11.52 606.24 A5.76 5.76 0 0 1 0 606.24 Z" class="st1"/>
			</g>
			<g id="shape3-10" v:mID="3" v:groupContext="shape">
				<title>Circle.3</title>
				<v:userDefs>
					<v:ud v:nameU="visVersion" v:val="VT0(15):26"/>
				</v:userDefs>
				<path d="M0 606.24 A5.76 5.76 0 0 1 11.52 606.24 A5.76 5.76 0 0 1 0 606.24 Z" class="st1"/>
			</g>
			<g id="shape4-12" v:mID="4" v:groupContext="shape" transform="translate(259.2,-187.2)">
				<title>Circle.4</title>
				<v:userDefs>
					<v:ud v:nameU="visVersion" v:val="VT0(15):26"/>
				</v:userDefs>
				<path d="M0 606.24 A5.76 5.76 0 0 1 11.52 606.24 A5.76 5.76 0 0 1 0 606.24 Z" class="st1"/>
			</g>
			<g id="shape5-14" v:mID="5" v:groupContext="shape" transform="translate(259.2,0)">
				<title>Circle.5</title>
				<v:userDefs>
					<v:ud v:nameU="visVersion" v:val="VT0(15):26"/>
				</v:userDefs>
				<path d="M0 606.24 A5.76 5.76 0 0 1 11.52 606.24 A5.76 5.76 0 0 1 0 606.24 Z" class="st1"/>
			</g>
		</g>
		<g id="shape28-16" v:mID="28" v:groupContext="shape" transform="translate(26.532,-136.782)">
			<title>Circle.1081</title>
			<v:userDefs>
				<v:ud v:nameU="visVersion" v:val="VT0(15):26"/>
			</v:userDefs>
			<path d="M0 607.03 A4.968 4.968 0 0 1 9.94 607.03 A4.968 4.968 0 1 1 0 607.03 Z" class="st1"/>
		</g>
		<g id="shape29-18" v:mID="29" v:groupContext="shape" transform="translate(98.532,-136.782)">
			<title>Circle.1082</title>
			<v:userDefs>
				<v:ud v:nameU="visVersion" v:val="VT0(15):26"/>
			</v:userDefs>
			<path d="M0 607.03 A4.968 4.968 0 0 1 9.94 607.03 A4.968 4.968 0 1 1 0 607.03 Z" class="st1"/>
		</g>
		<g id="shape30-20" v:mID="30" v:groupContext="shape" transform="translate(18,-36)">
			<title>Rectangle.1083</title>
			<v:userDefs>
				<v:ud v:nameU="visVersion" v:val="VT0(15):26"/>
			</v:userDefs>
			<rect x="0" y="576" width="108" height="36" class="st1"/>
		</g>
		<g id="group39-22" transform="translate(29.2317,-211.271)" v:mID="39" v:groupContext="group">
			<title>Sheet.39</title>
			<g id="shape8-23" v:mID="8" v:groupContext="shape" transform="translate(680.033,484.444) rotate(90)">
				<title>Circle</title>
				<v:userDefs>
					<v:ud v:nameU="visVersion" v:val="VT0(15):26"/>
				</v:userDefs>
				<path d="M0 607.75 A4.25197 4.25197 0 1 1 8.5 607.75 A4.25197 4.25197 0 0 1 0 607.75 Z" class="st1"/>
			</g>
			<g id="shape10-25" v:mID="10" v:groupContext="shape" transform="translate(680.033,603.496) rotate(90)">
				<title>Circle.10</title>
				<v:userDefs>
					<v:ud v:nameU="visVersion" v:val="VT0(15):26"/>
				</v:userDefs>
				<path d="M0 607.75 A4.25197 4.25197 0 1 1 8.5 607.75 A4.25197 4.25197 0 0 1 0 607.75 Z" class="st1"/>
			</g>
			<g id="shape11-27" v:mID="11" v:groupContext="shape" transform="translate(612,484.444) rotate(90)">
				<title>Circle.11</title>
				<v:userDefs>
					<v:ud v:nameU="visVersion" v:val="VT0(15):26"/>
				</v:userDefs>
				<path d="M0 607.75 A4.25197 4.25197 0 1 1 8.5 607.75 A4.25197 4.25197 0 0 1 0 607.75 Z" class="st1"/>
			</g>
			<g id="shape12-29" v:mID="12" v:groupContext="shape" transform="translate(612,603.496) rotate(90)">
				<title>Circle.12</title>
				<v:userDefs>
					<v:ud v:nameU="visVersion" v:val="VT0(15):26"/>
				</v:userDefs>
				<path d="M0 607.75 A4.25197 4.25197 0 1 1 8.5 607.75 A4.25197 4.25197 0 0 1 0 607.75 Z" class="st1"/>
			</g>
		</g>
		<g id="shape41-31" v:mID="41" v:groupContext="shape" transform="translate(139.032,-136.782)">
			<title>Circle.41</title>
			<v:userDefs>
				<v:ud v:nameU="visVersion" v:val="VT0(15):26"/>
			</v:userDefs>
			<path d="M0 607.03 A4.968 4.968 0 0 1 9.94 607.03 A4.968 4.968 0 1 1 0 607.03 Z" class="st1"/>
		</g>
		<g id="shape42-33" v:mID="42" v:groupContext="shape" transform="translate(211.032,-136.782)">
			<title>Circle.42</title>
			<v:userDefs>
				<v:ud v:nameU="visVersion" v:val="VT0(15):26"/>
			</v:userDefs>
			<path d="M0 607.03 A4.968 4.968 0 0 1 9.94 607.03 A4.968 4.968 0 1 1 0 607.03 Z" class="st1"/>
		</g>
		<g id="shape43-35" v:mID="43" v:groupContext="shape" transform="translate(130.5,-36)">
			<title>Rectangle.43</title>
			<v:userDefs>
				<v:ud v:nameU="visVersion" v:val="VT0(15):26"/>
			</v:userDefs>
			<rect x="0" y="576" width="108" height="36" class="st1"/>
		</g>
		<g id="group44-37" transform="translate(141.732,-211.271)" v:mID="44" v:groupContext="group">
			<title>Sheet.44</title>
			<g id="shape45-38" v:mID="45" v:groupContext="shape" transform="translate(680.033,484.444) rotate(90)">
				<title>Circle</title>
				<v:userDefs>
					<v:ud v:nameU="visVersion" v:val="VT0(15):26"/>
				</v:userDefs>
				<path d="M0 607.75 A4.25197 4.25197 0 1 1 8.5 607.75 A4.25197 4.25197 0 0 1 0 607.75 Z" class="st1"/>
			</g>
			<g id="shape46-40" v:mID="46" v:groupContext="shape" transform="translate(680.033,603.496) rotate(90)">
				<title>Circle.10</title>
				<v:userDefs>
					<v:ud v:nameU="visVersion" v:val="VT0(15):26"/>
				</v:userDefs>
				<path d="M0 607.75 A4.25197 4.25197 0 1 1 8.5 607.75 A4.25197 4.25197 0 0 1 0 607.75 Z" class="st1"/>
			</g>
			<g id="shape47-42" v:mID="47" v:groupContext="shape" transform="translate(612,484.444) rotate(90)">
				<title>Circle.11</title>
				<v:userDefs>
					<v:ud v:nameU="visVersion" v:val="VT0(15):26"/>
				</v:userDefs>
				<path d="M0 607.75 A4.25197 4.25197 0 1 1 8.5 607.75 A4.25197 4.25197 0 0 1 0 607.75 Z" class="st1"/>
			</g>
			<g id="shape48-44" v:mID="48" v:groupContext="shape" transform="translate(612,603.496) rotate(90)">
				<title>Circle.12</title>
				<v:userDefs>
					<v:ud v:nameU="visVersion" v:val="VT0(15):26"/>
				</v:userDefs>
				<path d="M0 607.75 A4.25197 4.25197 0 1 1 8.5 607.75 A4.25197 4.25197 0 0 1 0 607.75 Z" class="st1"/>
			</g>
		</g>
		<g id="shape59-46" v:mID="59" v:groupContext="shape" transform="translate(251.532,-136.782)">
			<title>Circle.59</title>
			<v:userDefs>
				<v:ud v:nameU="visVersion" v:val="VT0(15):26"/>
			</v:userDefs>
			<path d="M0 607.03 A4.968 4.968 0 0 1 9.94 607.03 A4.968 4.968 0 1 1 0 607.03 Z" class="st1"/>
		</g>
		<g id="shape60-48" v:mID="60" v:groupContext="shape" transform="translate(323.532,-136.782)">
			<title>Circle.60</title>
			<v:userDefs>
				<v:ud v:nameU="visVersion" v:val="VT0(15):26"/>
			</v:userDefs>
			<path d="M0 607.03 A4.968 4.968 0 0 1 9.94 607.03 A4.968 4.968 0 1 1 0 607.03 Z" class="st1"/>
		</g>
		<g id="shape61-50" v:mID="61" v:groupContext="shape" transform="translate(243,-36)">
			<title>Rectangle.61</title>
			<v:userDefs>
				<v:ud v:nameU="visVersion" v:val="VT0(15):26"/>
			</v:userDefs>
			<rect x="0" y="576" width="108" height="36" class="st1"/>
		</g>
		<g id="group62-52" transform="translate(254.232,-211.271)" v:mID="62" v:groupContext="group">
			<title>Sheet.62</title>
			<g id="shape63-53" v:mID="63" v:groupContext="shape" transform="translate(680.033,484.444) rotate(90)">
				<title>Circle</title>
				<v:userDefs>
					<v:ud v:nameU="visVersion" v:val="VT0(15):26"/>
				</v:userDefs>
				<path d="M0 607.75 A4.25197 4.25197 0 1 1 8.5 607.75 A4.25197 4.25197 0 0 1 0 607.75 Z" class="st1"/>
			</g>
			<g id="shape64-55" v:mID="64" v:groupContext="shape" transform="translate(680.033,603.496) rotate(90)">
				<title>Circle.10</title>
				<v:userDefs>
					<v:ud v:nameU="visVersion" v:val="VT0(15):26"/>
				</v:userDefs>
				<path d="M0 607.75 A4.25197 4.25197 0 1 1 8.5 607.75 A4.25197 4.25197 0 0 1 0 607.75 Z" class="st1"/>
			</g>
			<g id="shape65-57" v:mID="65" v:groupContext="shape" transform="translate(612,484.444) rotate(90)">
				<title>Circle.11</title>
				<v:userDefs>
					<v:ud v:nameU="visVersion" v:val="VT0(15):26"/>
				</v:userDefs>
				<path d="M0 607.75 A4.25197 4.25197 0 1 1 8.5 607.75 A4.25197 4.25197 0 0 1 0 607.75 Z" class="st1"/>
			</g>
			<g id="shape66-59" v:mID="66" v:groupContext="shape" transform="translate(612,603.496) rotate(90)">
				<title>Circle.12</title>
				<v:userDefs>
					<v:ud v:nameU="visVersion" v:val="VT0(15):26"/>
				</v:userDefs>
				<path d="M0 607.75 A4.25197 4.25197 0 1 1 8.5 607.75 A4.25197 4.25197 0 0 1 0 607.75 Z" class="st1"/>
			</g>
		</g>
		<g id="shape69-61" v:mID="69" v:groupContext="shape" transform="translate(647.503,513.993) rotate(90)">
			<title>Circle.69</title>
			<v:userDefs>
				<v:ud v:nameU="visVersion" v:val="VT0(15):26"/>
			</v:userDefs>
			<path d="M0 607.75 A4.25197 4.25197 0 1 1 8.5 607.75 A4.25197 4.25197 0 0 1 0 607.75 Z" class="st1"/>
		</g>
		<g id="shape70-63" v:mID="70" v:groupContext="shape" transform="translate(639,505.49) rotate(90)">
			<title>Circle.70</title>
			<v:userDefs>
				<v:ud v:nameU="visVersion" v:val="VT0(15):26"/>
			</v:userDefs>
			<path d="M0 599.25 A12.7548 12.7548 0 0 1 25.51 599.25 A12.7548 12.7548 0 1 1 0 599.25 Z" class="st1"/>
		</g>
		<g id="shape75-65" v:mID="75" v:groupContext="shape" transform="translate(674.503,513.993) rotate(90)">
			<title>Circle.75</title>
			<v:userDefs>
				<v:ud v:nameU="visVersion" v:val="VT0(15):26"/>
			</v:userDefs>
			<path d="M0 607.75 A4.25197 4.25197 0 1 1 8.5 607.75 A4.25197 4.25197 0 0 1 0 607.75 Z" class="st1"/>
		</g>
		<g id="shape76-67" v:mID="76" v:groupContext="shape" transform="translate(666,505.49) rotate(90)">
			<title>Circle.76</title>
			<v:userDefs>
				<v:ud v:nameU="visVersion" v:val="VT0(15):26"/>
			</v:userDefs>
			<path d="M0 599.25 A12.7548 12.7548 0 0 1 25.51 599.25 A12.7548 12.7548 0 1 1 0 599.25 Z" class="st1"/>
		</g>
		<g id="shape77-69" v:mID="77" v:groupContext="shape" transform="translate(701.503,513.993) rotate(90)">
			<title>Circle.77</title>
			<v:userDefs>
				<v:ud v:nameU="visVersion" v:val="VT0(15):26"/>
			</v:userDefs>
			<path d="M0 607.75 A4.25197 4.25197 0 1 1 8.5 607.75 A4.25197 4.25197 0 0 1 0 607.75 Z" class="st1"/>
		</g>
		<g id="shape78-71" v:mID="78" v:groupContext="shape" transform="translate(693,505.49) rotate(90)">
			<title>Circle.78</title>
			<v:userDefs>
				<v:ud v:nameU="visVersion" v:val="VT0(15):26"/>
			</v:userDefs>
			<path d="M0 599.25 A12.7548 12.7548 0 0 1 25.51 599.25 A12.7548 12.7548 0 1 1 0 599.25 Z" class="st1"/>
		</g>
		<g id="shape79-73" v:mID="79" v:groupContext="shape" transform="translate(728.503,513.993) rotate(90)">
			<title>Circle.79</title>
			<v:userDefs>
				<v:ud v:nameU="visVersion" v:val="VT0(15):26"/>
			</v:userDefs>
			<path d="M0 607.75 A4.25197 4.25197 0 1 1 8.5 607.75 A4.25197 4.25197 0 0 1 0 607.75 Z" class="st1"/>
		</g>
		<g id="shape80-75" v:mID="80" v:groupContext="shape" transform="translate(720,505.49) rotate(90)">
			<title>Circle.80</title>
			<v:userDefs>
				<v:ud v:nameU="visVersion" v:val="VT0(15):26"/>
			</v:userDefs>
			<path d="M0 599.25 A12.7548 12.7548 0 0 1 25.51 599.25 A12.7548 12.7548 0 1 1 0 599.25 Z" class="st1"/>
		</g>
		<g id="shape81-77" v:mID="81" v:groupContext="shape" transform="translate(755.503,513.993) rotate(90)">
			<title>Circle.81</title>
			<v:userDefs>
				<v:ud v:nameU="visVersion" v:val="VT0(15):26"/>
			</v:userDefs>
			<path d="M0 607.75 A4.25197 4.25197 0 1 1 8.5 607.75 A4.25197 4.25197 0 0 1 0 607.75 Z" class="st1"/>
		</g>
		<g id="shape82-79" v:mID="82" v:groupContext="shape" transform="translate(747,505.49) rotate(90)">
			<title>Circle.82</title>
			<v:userDefs>
				<v:ud v:nameU="visVersion" v:val="VT0(15):26"/>
			</v:userDefs>
			<path d="M0 599.25 A12.7548 12.7548 0 0 1 25.51 599.25 A12.7548 12.7548 0 1 1 0 599.25 Z" class="st1"/>
		</g>
		<g id="shape84-81" v:mID="84" v:groupContext="shape" transform="translate(333,-567)">
			<title>Circle</title>
			<v:userDefs>
				<v:ud v:nameU="visVersion" v:val="VT0(15):26"/>
			</v:userDefs>
			<path d="M0 603 A9 9 0 0 1 18 603 A9 9 0 1 1 0 603 Z" class="st1"/>
		</g>
		<g id="shape86-83" v:mID="86" v:groupContext="shape" transform="translate(333,-495)">
			<title>Circle.86</title>
			<v:userDefs>
				<v:ud v:nameU="visVersion" v:val="VT0(15):26"/>
			</v:userDefs>
			<path d="M0 603 A9 9 0 0 1 18 603 A9 9 0 1 1 0 603 Z" class="st1"/>
		</g>
		<g id="shape88-85" v:mID="88" v:groupContext="shape" transform="translate(9,-567)">
			<title>Circle.88</title>
			<v:userDefs>
				<v:ud v:nameU="visVersion" v:val="VT0(15):26"/>
			</v:userDefs>
			<path d="M0 603 A9 9 0 0 1 18 603 A9 9 0 1 1 0 603 Z" class="st1"/>
		</g>
		<g id="shape90-87" v:mID="90" v:groupContext="shape" transform="translate(9,-495)">
			<title>Circle.90</title>
			<v:userDefs>
				<v:ud v:nameU="visVersion" v:val="VT0(15):26"/>
			</v:userDefs>
			<path d="M0 603 A9 9 0 0 1 18 603 A9 9 0 1 1 0 603 Z" class="st1"/>
		</g>
		<g id="shape92-89" v:mID="92" v:groupContext="shape" transform="translate(333,-171)">
			<title>Circle.92</title>
			<v:userDefs>
				<v:ud v:nameU="visVersion" v:val="VT0(15):26"/>
			</v:userDefs>
			<path d="M0 603 A9 9 0 0 1 18 603 A9 9 0 1 1 0 603 Z" class="st1"/>
		</g>
		<g id="shape94-91" v:mID="94" v:groupContext="shape" transform="translate(9,-171)">
			<title>Circle.94</title>
			<v:userDefs>
				<v:ud v:nameU="visVersion" v:val="VT0(15):26"/>
			</v:userDefs>
			<path d="M0 603 A9 9 0 0 1 18 603 A9 9 0 1 1 0 603 Z" class="st1"/>
		</g>
		<g id="shape95-93" v:mID="95" v:groupContext="shape" transform="translate(31.5,-49.5)">
			<title>Circle.95</title>
			<v:userDefs>
				<v:ud v:nameU="visVersion" v:val="VT0(15):26"/>
			</v:userDefs>
			<path d="M0 607.03 A4.968 4.968 0 0 1 9.94 607.03 A4.968 4.968 0 1 1 0 607.03 Z" class="st1"/>
		</g>
		<g id="shape96-95" v:mID="96" v:groupContext="shape" transform="translate(103.5,-49.5)">
			<title>Circle.96</title>
			<v:userDefs>
				<v:ud v:nameU="visVersion" v:val="VT0(15):26"/>
			</v:userDefs>
			<path d="M0 607.03 A4.968 4.968 0 0 1 9.94 607.03 A4.968 4.968 0 1 1 0 607.03 Z" class="st1"/>
		</g>
		<g id="shape97-97" v:mID="97" v:groupContext="shape" transform="translate(144,-49.5)">
			<title>Circle.97</title>
			<v:userDefs>
				<v:ud v:nameU="visVersion" v:val="VT0(15):26"/>
			</v:userDefs>
			<path d="M0 607.03 A4.968 4.968 0 0 1 9.94 607.03 A4.968 4.968 0 1 1 0 607.03 Z" class="st1"/>
		</g>
		<g id="shape98-99" v:mID="98" v:groupContext="shape" transform="translate(216,-49.5)">
			<title>Circle.98</title>
			<v:userDefs>
				<v:ud v:nameU="visVersion" v:val="VT0(15):26"/>
			</v:userDefs>
			<path d="M0 607.03 A4.968 4.968 0 0 1 9.94 607.03 A4.968 4.968 0 1 1 0 607.03 Z" class="st1"/>
		</g>
		<g id="shape99-101" v:mID="99" v:groupContext="shape" transform="translate(256.5,-49.5)">
			<title>Circle.99</title>
			<v:userDefs>
				<v:ud v:nameU="visVersion" v:val="VT0(15):26"/>
			</v:userDefs>
			<path d="M0 607.03 A4.968 4.968 0 0 1 9.94 607.03 A4.968 4.968 0 1 1 0 607.03 Z" class="st1"/>
		</g>
		<g id="shape100-103" v:mID="100" v:groupContext="shape" transform="translate(328.5,-49.5)">
			<title>Circle.100</title>
			<v:userDefs>
				<v:ud v:nameU="visVersion" v:val="VT0(15):26"/>
			</v:userDefs>
			<path d="M0 607.03 A4.968 4.968 0 0 1 9.94 607.03 A4.968 4.968 0 1 1 0 607.03 Z" class="st1"/>
		</g>
	</g>
</svg>
