<?xml version="1.0" encoding="UTF-8" standalone="no"?>
<!DOCTYPE svg PUBLIC "-//W3C//DTD SVG 1.1//EN" "http://www.w3.org/Graphics/SVG/1.1/DTD/svg11.dtd">
<!-- Generated by Microsoft Visio, SVG Export PixyMountPlate.svg Page-1 -->
<svg xmlns="http://www.w3.org/2000/svg" xmlns:xlink="http://www.w3.org/1999/xlink" xmlns:ev="http://www.w3.org/2001/xml-events"
		xmlns:v="http://schemas.microsoft.com/visio/2003/SVGExtensions/" width="8.5in" height="11in" viewBox="0 0 612 792"
		xml:space="preserve" color-interpolation-filters="sRGB" class="st2">
	<v:documentProperties v:langID="1033" v:viewMarkup="false">
		<v:userDefs>
			<v:ud v:nameU="msvNoAutoConnect" v:val="VT0(1):26"/>
		</v:userDefs>
	</v:documentProperties>

	<style type="text/css">
	<![CDATA[
		.st1 {fill:none;stroke:#000000;stroke-linecap:round;stroke-linejoin:round;stroke-width:0.75}
		.st2 {fill:none;fill-rule:evenodd;font-size:12px;overflow:visible;stroke-linecap:square;stroke-miterlimit:3}
	]]>
	</style>

	<g v:mID="0" v:index="1" v:groupContext="foregroundPage">
		<title>Page-1</title>
		<v:pageProperties v:drawingScale="1" v:pageScale="1" v:drawingUnits="19" v:shadowOffsetX="9" v:shadowOffsetY="-9"/>
		<g id="shape1-1" v:mID="1" v:groupContext="shape" transform="translate(0,-630)">
			<title>Rectangle</title>
			<v:userDefs>
				<v:ud v:nameU="visVersion" v:val="VT0(15):26"/>
			</v:userDefs>
			<rect x="0" y="630" width="351" height="162" class="st1"/>
		</g>
		<g id="shape2-3" v:mID="2" v:groupContext="shape" transform="translate(36,-738)">
			<title>Circle</title>
			<v:userDefs>
				<v:ud v:nameU="visVersion" v:val="VT0(15):26"/>
			</v:userDefs>
			<path d="M0 783 A9 9 0 0 1 18 783 A9 9 0 1 1 0 783 Z" class="st1"/>
		</g>
		<g id="group8-5" transform="translate(103.86,-643.68)" v:mID="8" v:groupContext="group">
			<title>Sheet.8</title>
			<g id="shape3-6" v:mID="3" v:groupContext="shape" transform="translate(5.19584E-014,-126)">
				<title>Circle.3</title>
				<v:userDefs>
					<v:ud v:nameU="visVersion" v:val="VT0(15):26"/>
				</v:userDefs>
				<path d="M0 787.68 A4.32 4.32 0 0 1 8.64 787.68 A4.32 4.32 0 1 1 0 787.68 Z" class="st1"/>
			</g>
			<g id="shape4-8" v:mID="4" v:groupContext="shape" transform="translate(134.64,-126)">
				<title>Circle.4</title>
				<v:userDefs>
					<v:ud v:nameU="visVersion" v:val="VT0(15):26"/>
				</v:userDefs>
				<path d="M0 787.68 A4.32 4.32 0 0 1 8.64 787.68 A4.32 4.32 0 1 1 0 787.68 Z" class="st1"/>
			</g>
			<g id="shape5-10" v:mID="5" v:groupContext="shape" transform="translate(2.04836E-014,-32.04)">
				<title>Circle.5</title>
				<v:userDefs>
					<v:ud v:nameU="visVersion" v:val="VT0(15):26"/>
				</v:userDefs>
				<path d="M0 787.68 A4.32 4.32 0 0 1 8.64 787.68 A4.32 4.32 0 1 1 0 787.68 Z" class="st1"/>
			</g>
			<g id="shape6-12" v:mID="6" v:groupContext="shape" transform="translate(37.8,0)">
				<title>Circle.6</title>
				<v:userDefs>
					<v:ud v:nameU="visVersion" v:val="VT0(15):26"/>
				</v:userDefs>
				<path d="M0 787.68 A4.32 4.32 0 0 1 8.64 787.68 A4.32 4.32 0 1 1 0 787.68 Z" class="st1"/>
			</g>
			<g id="shape7-14" v:mID="7" v:groupContext="shape" transform="translate(96.84,0)">
				<title>Circle.7</title>
				<v:userDefs>
					<v:ud v:nameU="visVersion" v:val="VT0(15):26"/>
				</v:userDefs>
				<path d="M0 787.68 A4.32 4.32 0 0 1 8.64 787.68 A4.32 4.32 0 1 1 0 787.68 Z" class="st1"/>
			</g>
		</g>
		<g id="shape9-16" v:mID="9" v:groupContext="shape" transform="translate(36,-666)">
			<title>Circle.9</title>
			<v:userDefs>
				<v:ud v:nameU="visVersion" v:val="VT0(15):26"/>
			</v:userDefs>
			<path d="M0 783 A9 9 0 0 1 18 783 A9 9 0 1 1 0 783 Z" class="st1"/>
		</g>
		<g id="shape10-18" v:mID="10" v:groupContext="shape" transform="translate(297,-738)">
			<title>Circle.10</title>
			<v:userDefs>
				<v:ud v:nameU="visVersion" v:val="VT0(15):26"/>
			</v:userDefs>
			<path d="M0 783 A9 9 0 0 1 18 783 A9 9 0 1 1 0 783 Z" class="st1"/>
		</g>
		<g id="shape11-20" v:mID="11" v:groupContext="shape" transform="translate(297,-666)">
			<title>Circle.11</title>
			<v:userDefs>
				<v:ud v:nameU="visVersion" v:val="VT0(15):26"/>
			</v:userDefs>
			<path d="M0 783 A9 9 0 0 1 18 783 A9 9 0 1 1 0 783 Z" class="st1"/>
		</g>
	</g>
</svg>
