<?xml version="1.0" encoding="UTF-8" standalone="no"?>
<!DOCTYPE svg PUBLIC "-//W3C//DTD SVG 1.1//EN" "http://www.w3.org/Graphics/SVG/1.1/DTD/svg11.dtd">
<!-- Generated by Microsoft Visio, SVG Export PSU_MountingPlate.svg Page-1 -->
<svg xmlns="http://www.w3.org/2000/svg" xmlns:xlink="http://www.w3.org/1999/xlink" xmlns:ev="http://www.w3.org/2001/xml-events"
		xmlns:v="http://schemas.microsoft.com/visio/2003/SVGExtensions/" width="8.5in" height="11in" viewBox="0 0 612 792"
		xml:space="preserve" color-interpolation-filters="sRGB" class="st2">
	<v:documentProperties v:langID="1033" v:viewMarkup="false">
		<v:userDefs>
			<v:ud v:nameU="msvNoAutoConnect" v:val="VT0(1):26"/>
		</v:userDefs>
	</v:documentProperties>

	<style type="text/css">
	<![CDATA[
		.st1 {fill:none;stroke:#000000;stroke-linecap:round;stroke-linejoin:round;stroke-width:0.75}
		.st2 {fill:none;fill-rule:evenodd;font-size:12px;overflow:visible;stroke-linecap:square;stroke-miterlimit:3}
	]]>
	</style>

	<g v:mID="0" v:index="1" v:groupContext="foregroundPage">
		<title>Page-1</title>
		<v:pageProperties v:drawingScale="1" v:pageScale="1" v:drawingUnits="19" v:shadowOffsetX="9" v:shadowOffsetY="-9"/>
		<g id="shape1-1" v:mID="1" v:groupContext="shape" transform="translate(0,-110.549)">
			<title>Rectangle</title>
			<v:userDefs>
				<v:ud v:nameU="visVersion" v:val="VT0(15):26"/>
			</v:userDefs>
			<rect x="0" y="110.549" width="144" height="681.451" class="st1"/>
		</g>
		<g id="shape1073-3" v:mID="1073" v:groupContext="shape" transform="translate(27,-765)">
			<title>Circle.1073</title>
			<v:userDefs>
				<v:ud v:nameU="visVersion" v:val="VT0(15):26"/>
			</v:userDefs>
			<path d="M0 783 A9 9 0 0 1 18 783 A9 9 0 1 1 0 783 Z" class="st1"/>
		</g>
		<g id="shape1075-5" v:mID="1075" v:groupContext="shape" transform="translate(99,-765)">
			<title>Circle.1075</title>
			<v:userDefs>
				<v:ud v:nameU="visVersion" v:val="VT0(15):26"/>
			</v:userDefs>
			<path d="M0 783 A9 9 0 0 1 18 783 A9 9 0 1 1 0 783 Z" class="st1"/>
		</g>
		<g id="shape1076-7" v:mID="1076" v:groupContext="shape" transform="translate(27,-119.549)">
			<title>Circle.1076</title>
			<v:userDefs>
				<v:ud v:nameU="visVersion" v:val="VT0(15):26"/>
			</v:userDefs>
			<path d="M0 783 A9 9 0 0 1 18 783 A9 9 0 1 1 0 783 Z" class="st1"/>
		</g>
		<g id="shape1077-9" v:mID="1077" v:groupContext="shape" transform="translate(99,-119.549)">
			<title>Circle.1077</title>
			<v:userDefs>
				<v:ud v:nameU="visVersion" v:val="VT0(15):26"/>
			</v:userDefs>
			<path d="M0 783 A9 9 0 0 1 18 783 A9 9 0 1 1 0 783 Z" class="st1"/>
		</g>
		<g id="shape1080-11" v:mID="1080" v:groupContext="shape" transform="translate(30.8995,-658.204)">
			<title>Circle.1080</title>
			<v:userDefs>
				<v:ud v:nameU="visVersion" v:val="VT0(15):26"/>
			</v:userDefs>
			<path d="M0 786.33 A5.66929 5.66929 0 0 1 11.34 786.33 A5.66929 5.66929 0 1 1 0 786.33 Z" class="st1"/>
		</g>
		<g id="shape1081-13" v:mID="1081" v:groupContext="shape" transform="translate(101.755,-658.204)">
			<title>Circle.1081</title>
			<v:userDefs>
				<v:ud v:nameU="visVersion" v:val="VT0(15):26"/>
			</v:userDefs>
			<path d="M0 786.33 A5.66929 5.66929 0 0 1 11.34 786.33 A5.66929 5.66929 0 1 1 0 786.33 Z" class="st1"/>
		</g>
		<g id="shape1082-15" v:mID="1082" v:groupContext="shape" transform="translate(101.755,-233.007)">
			<title>Circle.1082</title>
			<v:userDefs>
				<v:ud v:nameU="visVersion" v:val="VT0(15):26"/>
			</v:userDefs>
			<path d="M0 786.33 A5.66929 5.66929 0 0 1 11.34 786.33 A5.66929 5.66929 0 1 1 0 786.33 Z" class="st1"/>
		</g>
		<g id="shape1083-17" v:mID="1083" v:groupContext="shape" transform="translate(30.8995,-233.007)">
			<title>Circle.1083</title>
			<v:userDefs>
				<v:ud v:nameU="visVersion" v:val="VT0(15):26"/>
			</v:userDefs>
			<path d="M0 786.33 A5.66929 5.66929 0 0 1 11.34 786.33 A5.66929 5.66929 0 1 1 0 786.33 Z" class="st1"/>
		</g>
	</g>
</svg>
