<?xml version="1.0" encoding="UTF-8" standalone="no"?>
<!DOCTYPE svg PUBLIC "-//W3C//DTD SVG 1.1//EN" "http://www.w3.org/Graphics/SVG/1.1/DTD/svg11.dtd">
<!-- Generated by Microsoft Visio, SVG Export ShaftGuidePlates.svg Page-1 -->
<svg xmlns="http://www.w3.org/2000/svg" xmlns:xlink="http://www.w3.org/1999/xlink" xmlns:ev="http://www.w3.org/2001/xml-events"
		xmlns:v="http://schemas.microsoft.com/visio/2003/SVGExtensions/" width="8.5in" height="11in" viewBox="0 0 612 792"
		xml:space="preserve" color-interpolation-filters="sRGB" class="st2">
	<v:documentProperties v:langID="1033" v:viewMarkup="false">
		<v:userDefs>
			<v:ud v:nameU="msvNoAutoConnect" v:val="VT0(1):26"/>
		</v:userDefs>
	</v:documentProperties>

	<style type="text/css">
	<![CDATA[
		.st1 {fill:none;stroke:#000000;stroke-linecap:round;stroke-linejoin:round;stroke-width:0.75}
		.st2 {fill:none;fill-rule:evenodd;font-size:12px;overflow:visible;stroke-linecap:square;stroke-miterlimit:3}
	]]>
	</style>

	<g v:mID="0" v:index="1" v:groupContext="foregroundPage">
		<title>Page-1</title>
		<v:pageProperties v:drawingScale="1" v:pageScale="1" v:drawingUnits="19" v:shadowOffsetX="9" v:shadowOffsetY="-9"/>
		<g id="shape1-1" v:mID="1" v:groupContext="shape" transform="translate(0,-576)">
			<title>Rectangle</title>
			<v:userDefs>
				<v:ud v:nameU="visVersion" v:val="VT0(15):26"/>
			</v:userDefs>
			<rect x="0" y="576" width="216" height="216" class="st1"/>
		</g>
		<g id="shape1073-3" v:mID="1073" v:groupContext="shape" transform="translate(27,-747)">
			<title>Circle.1073</title>
			<v:userDefs>
				<v:ud v:nameU="visVersion" v:val="VT0(15):26"/>
			</v:userDefs>
			<path d="M0 783 A9 9 0 0 1 18 783 A9 9 0 1 1 0 783 Z" class="st1"/>
		</g>
		<g id="shape1074-5" v:mID="1074" v:groupContext="shape" transform="translate(72,-720)">
			<title>Rectangle.1074</title>
			<v:userDefs>
				<v:ud v:nameU="visVersion" v:val="VT0(15):26"/>
			</v:userDefs>
			<rect x="0" y="720" width="72" height="72" class="st1"/>
		</g>
		<g id="shape1075-7" v:mID="1075" v:groupContext="shape" transform="translate(171,-747)">
			<title>Circle.1075</title>
			<v:userDefs>
				<v:ud v:nameU="visVersion" v:val="VT0(15):26"/>
			</v:userDefs>
			<path d="M0 783 A9 9 0 0 1 18 783 A9 9 0 1 1 0 783 Z" class="st1"/>
		</g>
		<g id="shape1076-9" v:mID="1076" v:groupContext="shape" transform="translate(83.25,-623.25)">
			<title>Circle.1076</title>
			<v:userDefs>
				<v:ud v:nameU="visVersion" v:val="VT0(15):26"/>
			</v:userDefs>
			<path d="M0 767.25 A24.75 24.75 0 0 1 49.5 767.25 A24.75 24.75 0 1 1 0 767.25 Z" class="st1"/>
		</g>
		<g id="shape1077-11" v:mID="1077" v:groupContext="shape" transform="translate(0,-576)">
			<title>Right Triangle.1077</title>
			<v:userDefs>
				<v:ud v:nameU="visVersion" v:val="VT0(15):26"/>
			</v:userDefs>
			<path d="M0 792 L72 792 L0 720 L0 792 Z" class="st1"/>
		</g>
		<g id="shape1078-13" v:mID="1078" v:groupContext="shape" transform="translate(-576,216) rotate(-90)">
			<title>Right Triangle.1078</title>
			<v:userDefs>
				<v:ud v:nameU="visVersion" v:val="VT0(15):26"/>
			</v:userDefs>
			<path d="M0 792 L72 792 L0 720 L0 792 Z" class="st1"/>
		</g>
		<g id="shape1079-15" v:mID="1079" v:groupContext="shape" transform="translate(0,-357.75)">
			<title>Rectangle.1079</title>
			<v:userDefs>
				<v:ud v:nameU="visVersion" v:val="VT0(15):26"/>
			</v:userDefs>
			<rect x="0" y="576" width="216" height="216" class="st1"/>
		</g>
		<g id="shape1080-17" v:mID="1080" v:groupContext="shape" transform="translate(27,-528.75)">
			<title>Circle.1080</title>
			<v:userDefs>
				<v:ud v:nameU="visVersion" v:val="VT0(15):26"/>
			</v:userDefs>
			<path d="M0 783 A9 9 0 0 1 18 783 A9 9 0 1 1 0 783 Z" class="st1"/>
		</g>
		<g id="shape1081-19" v:mID="1081" v:groupContext="shape" transform="translate(72,-501.75)">
			<title>Rectangle.1081</title>
			<v:userDefs>
				<v:ud v:nameU="visVersion" v:val="VT0(15):26"/>
			</v:userDefs>
			<rect x="0" y="720" width="72" height="72" class="st1"/>
		</g>
		<g id="shape1082-21" v:mID="1082" v:groupContext="shape" transform="translate(171,-528.75)">
			<title>Circle.1082</title>
			<v:userDefs>
				<v:ud v:nameU="visVersion" v:val="VT0(15):26"/>
			</v:userDefs>
			<path d="M0 783 A9 9 0 0 1 18 783 A9 9 0 1 1 0 783 Z" class="st1"/>
		</g>
		<g id="shape1083-23" v:mID="1083" v:groupContext="shape" transform="translate(83.25,-405)">
			<title>Circle.1083</title>
			<v:userDefs>
				<v:ud v:nameU="visVersion" v:val="VT0(15):26"/>
			</v:userDefs>
			<path d="M0 767.25 A24.75 24.75 0 0 1 49.5 767.25 A24.75 24.75 0 1 1 0 767.25 Z" class="st1"/>
		</g>
		<g id="shape1084-25" v:mID="1084" v:groupContext="shape" transform="translate(0,-357.75)">
			<title>Right Triangle.1084</title>
			<v:userDefs>
				<v:ud v:nameU="visVersion" v:val="VT0(15):26"/>
			</v:userDefs>
			<path d="M0 792 L72 792 L0 720 L0 792 Z" class="st1"/>
		</g>
		<g id="shape1085-27" v:mID="1085" v:groupContext="shape" transform="translate(-576,434.25) rotate(-90)">
			<title>Right Triangle.1085</title>
			<v:userDefs>
				<v:ud v:nameU="visVersion" v:val="VT0(15):26"/>
			</v:userDefs>
			<path d="M0 792 L72 792 L0 720 L0 792 Z" class="st1"/>
		</g>
	</g>
</svg>
