<?xml version="1.0" encoding="UTF-8" standalone="no"?>
<!DOCTYPE svg PUBLIC "-//W3C//DTD SVG 1.1//EN" "http://www.w3.org/Graphics/SVG/1.1/DTD/svg11.dtd">
<!-- Generated by Microsoft Visio, SVG Export XAxis_RailBumpers.svg Page-1 -->
<svg xmlns="http://www.w3.org/2000/svg" xmlns:xlink="http://www.w3.org/1999/xlink" xmlns:ev="http://www.w3.org/2001/xml-events"
		xmlns:v="http://schemas.microsoft.com/visio/2003/SVGExtensions/" width="11in" height="8.5in" viewBox="0 0 792 612"
		xml:space="preserve" color-interpolation-filters="sRGB" class="st4">
	<v:documentProperties v:langID="1033" v:viewMarkup="false">
		<v:userDefs>
			<v:ud v:nameU="msvSubprocessMaster" v:prompt="" v:val="VT4(Rectangle)"/>
			<v:ud v:nameU="msvNoAutoConnect" v:val="VT0(1):26"/>
		</v:userDefs>
	</v:documentProperties>

	<style type="text/css">
	<![CDATA[
		.st1 {visibility:visible}
		.st2 {fill:none;filter:url(#filter_2);stroke:#5b9bd5;stroke-opacity:0.22}
		.st3 {fill:none;stroke:#000000;stroke-width:0.75}
		.st4 {fill:none;fill-rule:evenodd;font-size:12px;overflow:visible;stroke-linecap:square;stroke-miterlimit:3}
	]]>
	</style>

	<defs id="Filters">
		<filter id="filter_2">
			<feGaussianBlur stdDeviation="2"/>
		</filter>
	</defs>
	<g v:mID="0" v:index="1" v:groupContext="foregroundPage">
		<v:userDefs>
			<v:ud v:nameU="msvThemeOrder" v:val="VT0(0):26"/>
		</v:userDefs>
		<title>Page-1</title>
		<v:pageProperties v:drawingScale="1" v:pageScale="1" v:drawingUnits="0" v:shadowOffsetX="9" v:shadowOffsetY="-9"/>
		<g id="shape26-1" v:mID="26" v:groupContext="shape" transform="translate(2.16,-555.75)">
			<title>Rectangle</title>
			<v:userDefs>
				<v:ud v:nameU="visVersion" v:val="VT0(15):26"/>
			</v:userDefs>
			<g id="shadow26-2" v:groupContext="shadow" v:shadowOffsetX="0.345598" v:shadowOffsetY="-1.97279" v:shadowType="1"
					transform="matrix(1,0,0,1,0.345598,1.97279)" class="st1">
				<rect x="0" y="558" width="90" height="54" class="st2"/>
			</g>
			<rect x="0" y="558" width="90" height="54" class="st3"/>
		</g>
		<g id="shape27-6" v:mID="27" v:groupContext="shape" transform="translate(29.4435,-565.033)">
			<title>Circle.27</title>
			<v:userDefs>
				<v:ud v:nameU="visVersion" v:val="VT0(15):26"/>
			</v:userDefs>
			<g id="shadow27-7" v:groupContext="shadow" v:shadowOffsetX="0.345598" v:shadowOffsetY="-1.97279" v:shadowType="1"
					transform="matrix(1,0,0,1,0.345598,1.97279)" class="st1">
				<path d="M0 594.28 A17.7165 17.7165 0 0 1 35.43 594.28 A17.7165 17.7165 0 1 1 0 594.28 Z" class="st2"/>
			</g>
			<path d="M0 594.28 A17.7165 17.7165 0 0 1 35.43 594.28 A17.7165 17.7165 0 1 1 0 594.28 Z" class="st3"/>
		</g>
		<g id="shape30-11" v:mID="30" v:groupContext="shape" transform="translate(11.16,-600.75)">
			<title>Rectangle.30</title>
			<v:userDefs>
				<v:ud v:nameU="visVersion" v:val="VT0(15):26"/>
			</v:userDefs>
			<g id="shadow30-12" v:groupContext="shadow" v:shadowOffsetX="0.345598" v:shadowOffsetY="-1.97279" v:shadowType="1"
					transform="matrix(1,0,0,1,0.345598,1.97279)" class="st1">
				<rect x="0" y="603" width="9" height="9" class="st2"/>
			</g>
			<rect x="0" y="603" width="9" height="9" class="st3"/>
		</g>
		<g id="shape37-16" v:mID="37" v:groupContext="shape" transform="translate(74.16,-600.75)">
			<title>Rectangle.37</title>
			<v:userDefs>
				<v:ud v:nameU="visVersion" v:val="VT0(15):26"/>
			</v:userDefs>
			<g id="shadow37-17" v:groupContext="shadow" v:shadowOffsetX="0.345598" v:shadowOffsetY="-1.97279" v:shadowType="1"
					transform="matrix(1,0,0,1,0.345598,1.97279)" class="st1">
				<rect x="0" y="603" width="9" height="9" class="st2"/>
			</g>
			<rect x="0" y="603" width="9" height="9" class="st3"/>
		</g>
		<g id="shape41-21" v:mID="41" v:groupContext="shape" transform="translate(83.16,-605.25)">
			<title>Rectangle.41</title>
			<v:userDefs>
				<v:ud v:nameU="visVersion" v:val="VT0(15):26"/>
			</v:userDefs>
			<g id="shadow41-22" v:groupContext="shadow" v:shadowOffsetX="0.345598" v:shadowOffsetY="-1.97279" v:shadowType="1"
					transform="matrix(1,0,0,1,0.345598,1.97279)" class="st1">
				<rect x="0" y="607.5" width="9" height="4.5" class="st2"/>
			</g>
			<rect x="0" y="607.5" width="9" height="4.5" class="st3"/>
		</g>
		<g id="shape2001-26" v:mID="2001" v:groupContext="shape" transform="translate(74.16,614.25) rotate(180)">
			<title>Right Triangle.2001</title>
			<v:userDefs>
				<v:ud v:nameU="visVersion" v:val="VT0(15):26"/>
			</v:userDefs>
			<g id="shadow2001-27" v:groupContext="shadow" v:shadowOffsetX="0.345598" v:shadowOffsetY="-1.97279" v:shadowType="1"
					transform="matrix(1,0,0,1,-0.345598,-1.97279)" class="st1">
				<path d="M0 612 L9 612 L0 603 L0 612 Z" class="st2"/>
			</g>
			<path d="M0 612 L9 612 L0 603 L0 612 Z" class="st3"/>
		</g>
		<g id="shape2010-31" v:mID="2010" v:groupContext="shape" transform="translate(2.16,-605.25)">
			<title>Rectangle.2010</title>
			<v:userDefs>
				<v:ud v:nameU="visVersion" v:val="VT0(15):26"/>
			</v:userDefs>
			<g id="shadow2010-32" v:groupContext="shadow" v:shadowOffsetX="0.345598" v:shadowOffsetY="-1.97279" v:shadowType="1"
					transform="matrix(1,0,0,1,0.345598,1.97279)" class="st1">
				<rect x="0" y="607.5" width="9" height="4.5" class="st2"/>
			</g>
			<rect x="0" y="607.5" width="9" height="4.5" class="st3"/>
		</g>
		<g id="shape2011-36" v:mID="2011" v:groupContext="shape" transform="translate(632.16,2.25) rotate(90)">
			<title>Right Triangle.2011</title>
			<v:userDefs>
				<v:ud v:nameU="visVersion" v:val="VT0(15):26"/>
			</v:userDefs>
			<g id="shadow2011-37" v:groupContext="shadow" v:shadowOffsetX="0.345598" v:shadowOffsetY="-1.97279" v:shadowType="1"
					transform="matrix(1,0,0,1,1.97279,-0.345598)" class="st1">
				<path d="M0 612 L9 612 L0 603 L0 612 Z" class="st2"/>
			</g>
			<path d="M0 612 L9 612 L0 603 L0 612 Z" class="st3"/>
		</g>
		<g id="shape2012-41" v:mID="2012" v:groupContext="shape" transform="translate(20.25,659.34) rotate(180)">
			<title>Rectangle.2012</title>
			<v:userDefs>
				<v:ud v:nameU="visVersion" v:val="VT0(15):26"/>
			</v:userDefs>
			<g id="shadow2012-42" v:groupContext="shadow" v:shadowOffsetX="0.345598" v:shadowOffsetY="-1.97279" v:shadowType="1"
					transform="matrix(1,0,0,1,-0.345598,-1.97279)" class="st1">
				<rect x="0" y="603" width="9" height="9" class="st2"/>
			</g>
			<rect x="0" y="603" width="9" height="9" class="st3"/>
		</g>
		<g id="shape2013-46" v:mID="2013" v:groupContext="shape" transform="translate(11.25,663.84) rotate(180)">
			<title>Rectangle.2013</title>
			<v:userDefs>
				<v:ud v:nameU="visVersion" v:val="VT0(15):26"/>
			</v:userDefs>
			<g id="shadow2013-47" v:groupContext="shadow" v:shadowOffsetX="0.345598" v:shadowOffsetY="-1.97279" v:shadowType="1"
					transform="matrix(1,0,0,1,-0.345598,-1.97279)" class="st1">
				<rect x="0" y="607.5" width="9" height="4.5" class="st2"/>
			</g>
			<rect x="0" y="607.5" width="9" height="4.5" class="st3"/>
		</g>
		<g id="shape2014-51" v:mID="2014" v:groupContext="shape" transform="translate(20.25,-555.66)">
			<title>Right Triangle.2014</title>
			<v:userDefs>
				<v:ud v:nameU="visVersion" v:val="VT0(15):26"/>
			</v:userDefs>
			<g id="shadow2014-52" v:groupContext="shadow" v:shadowOffsetX="0.345598" v:shadowOffsetY="-1.97279" v:shadowType="1"
					transform="matrix(1,0,0,1,0.345598,1.97279)" class="st1">
				<path d="M0 612 L9 612 L0 603 L0 612 Z" class="st2"/>
			</g>
			<path d="M0 612 L9 612 L0 603 L0 612 Z" class="st3"/>
		</g>
		<g id="shape2015-56" v:mID="2015" v:groupContext="shape" transform="translate(83.25,659.34) rotate(180)">
			<title>Rectangle.2015</title>
			<v:userDefs>
				<v:ud v:nameU="visVersion" v:val="VT0(15):26"/>
			</v:userDefs>
			<g id="shadow2015-57" v:groupContext="shadow" v:shadowOffsetX="0.345598" v:shadowOffsetY="-1.97279" v:shadowType="1"
					transform="matrix(1,0,0,1,-0.345598,-1.97279)" class="st1">
				<rect x="0" y="603" width="9" height="9" class="st2"/>
			</g>
			<rect x="0" y="603" width="9" height="9" class="st3"/>
		</g>
		<g id="shape2016-61" v:mID="2016" v:groupContext="shape" transform="translate(92.25,663.84) rotate(180)">
			<title>Rectangle.2016</title>
			<v:userDefs>
				<v:ud v:nameU="visVersion" v:val="VT0(15):26"/>
			</v:userDefs>
			<g id="shadow2016-62" v:groupContext="shadow" v:shadowOffsetX="0.345598" v:shadowOffsetY="-1.97279" v:shadowType="1"
					transform="matrix(1,0,0,1,-0.345598,-1.97279)" class="st1">
				<rect x="0" y="607.5" width="9" height="4.5" class="st2"/>
			</g>
			<rect x="0" y="607.5" width="9" height="4.5" class="st3"/>
		</g>
		<g id="shape2017-66" v:mID="2017" v:groupContext="shape" transform="translate(-537.75,56.34) rotate(-90)">
			<title>Right Triangle.2017</title>
			<v:userDefs>
				<v:ud v:nameU="visVersion" v:val="VT0(15):26"/>
			</v:userDefs>
			<g id="shadow2017-67" v:groupContext="shadow" v:shadowOffsetX="0.345598" v:shadowOffsetY="-1.97279" v:shadowType="1"
					transform="matrix(1,0,0,1,-1.97279,0.345598)" class="st1">
				<path d="M0 612 L9 612 L0 603 L0 612 Z" class="st2"/>
			</g>
			<path d="M0 612 L9 612 L0 603 L0 612 Z" class="st3"/>
		</g>
	</g>
</svg>
