<?xml version="1.0" encoding="UTF-8" standalone="no"?>
<!DOCTYPE svg PUBLIC "-//W3C//DTD SVG 1.1//EN" "http://www.w3.org/Graphics/SVG/1.1/DTD/svg11.dtd">
<!-- Generated by Microsoft Visio, SVG Export RailBumpers12MM.svg Page-1 -->
<svg xmlns="http://www.w3.org/2000/svg" xmlns:xlink="http://www.w3.org/1999/xlink" xmlns:ev="http://www.w3.org/2001/xml-events"
		xmlns:v="http://schemas.microsoft.com/visio/2003/SVGExtensions/" width="11in" height="8.5in" viewBox="0 0 792 612"
		xml:space="preserve" color-interpolation-filters="sRGB" class="st4">
	<v:documentProperties v:langID="1033" v:viewMarkup="false">
		<v:userDefs>
			<v:ud v:nameU="msvSubprocessMaster" v:prompt="" v:val="VT4(Rectangle)"/>
			<v:ud v:nameU="msvNoAutoConnect" v:val="VT0(1):26"/>
		</v:userDefs>
	</v:documentProperties>

	<style type="text/css">
	<![CDATA[
		.st1 {visibility:visible}
		.st2 {fill:none;filter:url(#filter_2);stroke:#5b9bd5;stroke-opacity:0.22}
		.st3 {fill:none;stroke:#000000;stroke-width:0.75}
		.st4 {fill:none;fill-rule:evenodd;font-size:12px;overflow:visible;stroke-linecap:square;stroke-miterlimit:3}
	]]>
	</style>

	<defs id="Filters">
		<filter id="filter_2">
			<feGaussianBlur stdDeviation="2"/>
		</filter>
	</defs>
	<g v:mID="0" v:index="1" v:groupContext="foregroundPage">
		<v:userDefs>
			<v:ud v:nameU="msvThemeOrder" v:val="VT0(0):26"/>
		</v:userDefs>
		<title>Page-1</title>
		<v:pageProperties v:drawingScale="1" v:pageScale="1" v:drawingUnits="0" v:shadowOffsetX="9" v:shadowOffsetY="-9"/>
		<g id="shape3-1" v:mID="3" v:groupContext="shape" transform="translate(78.57,-537.75)">
			<title>Circle.3</title>
			<v:userDefs>
				<v:ud v:nameU="visVersion" v:val="VT0(15):26"/>
			</v:userDefs>
			<g id="shadow3-2" v:groupContext="shadow" v:shadowOffsetX="0.345598" v:shadowOffsetY="-1.97279" v:shadowType="1"
					transform="matrix(1,0,0,1,0.345598,1.97279)" class="st1">
				<path d="M0 576 A36 36 0 0 1 72 576 A36 36 0 1 1 0 576 Z" class="st2"/>
			</g>
			<path d="M0 576 A36 36 0 0 1 72 576 A36 36 0 1 1 0 576 Z" class="st3"/>
		</g>
		<g id="shape4-6" v:mID="4" v:groupContext="shape" transform="translate(96.8535,-556.033)">
			<title>Circle.4</title>
			<v:userDefs>
				<v:ud v:nameU="visVersion" v:val="VT0(15):26"/>
			</v:userDefs>
			<g id="shadow4-7" v:groupContext="shadow" v:shadowOffsetX="0.345598" v:shadowOffsetY="-1.97279" v:shadowType="1"
					transform="matrix(1,0,0,1,0.345598,1.97279)" class="st1">
				<path d="M0 594.28 A17.7165 17.7165 0 0 1 35.43 594.28 A17.7165 17.7165 0 1 1 0 594.28 Z" class="st2"/>
			</g>
			<path d="M0 594.28 A17.7165 17.7165 0 0 1 35.43 594.28 A17.7165 17.7165 0 1 1 0 594.28 Z" class="st3"/>
		</g>
		<g id="shape5-11" v:mID="5" v:groupContext="shape" transform="translate(155.25,-537.75)">
			<title>Circle.5</title>
			<v:userDefs>
				<v:ud v:nameU="visVersion" v:val="VT0(15):26"/>
			</v:userDefs>
			<g id="shadow5-12" v:groupContext="shadow" v:shadowOffsetX="0.345598" v:shadowOffsetY="-1.97279" v:shadowType="1"
					transform="matrix(1,0,0,1,0.345598,1.97279)" class="st1">
				<path d="M0 576 A36 36 0 0 1 72 576 A36 36 0 1 1 0 576 Z" class="st2"/>
			</g>
			<path d="M0 576 A36 36 0 0 1 72 576 A36 36 0 1 1 0 576 Z" class="st3"/>
		</g>
		<g id="shape6-16" v:mID="6" v:groupContext="shape" transform="translate(173.533,-556.033)">
			<title>Circle.6</title>
			<v:userDefs>
				<v:ud v:nameU="visVersion" v:val="VT0(15):26"/>
			</v:userDefs>
			<g id="shadow6-17" v:groupContext="shadow" v:shadowOffsetX="0.345598" v:shadowOffsetY="-1.97279" v:shadowType="1"
					transform="matrix(1,0,0,1,0.345598,1.97279)" class="st1">
				<path d="M0 594.28 A17.7165 17.7165 0 0 1 35.43 594.28 A17.7165 17.7165 0 1 1 0 594.28 Z" class="st2"/>
			</g>
			<path d="M0 594.28 A17.7165 17.7165 0 0 1 35.43 594.28 A17.7165 17.7165 0 1 1 0 594.28 Z" class="st3"/>
		</g>
		<g id="shape26-21" v:mID="26" v:groupContext="shape" transform="translate(231.75,-537.75)">
			<title>Rectangle</title>
			<v:userDefs>
				<v:ud v:nameU="visVersion" v:val="VT0(15):26"/>
			</v:userDefs>
			<g id="shadow26-22" v:groupContext="shadow" v:shadowOffsetX="0.345598" v:shadowOffsetY="-1.97279" v:shadowType="1"
					transform="matrix(1,0,0,1,0.345598,1.97279)" class="st1">
				<rect x="0" y="540" width="90" height="72" class="st2"/>
			</g>
			<rect x="0" y="540" width="90" height="72" class="st3"/>
		</g>
		<g id="shape27-26" v:mID="27" v:groupContext="shape" transform="translate(259.033,-556.033)">
			<title>Circle.27</title>
			<v:userDefs>
				<v:ud v:nameU="visVersion" v:val="VT0(15):26"/>
			</v:userDefs>
			<g id="shadow27-27" v:groupContext="shadow" v:shadowOffsetX="0.345598" v:shadowOffsetY="-1.97279" v:shadowType="1"
					transform="matrix(1,0,0,1,0.345598,1.97279)" class="st1">
				<path d="M0 594.28 A17.7165 17.7165 0 0 1 35.43 594.28 A17.7165 17.7165 0 1 1 0 594.28 Z" class="st2"/>
			</g>
			<path d="M0 594.28 A17.7165 17.7165 0 0 1 35.43 594.28 A17.7165 17.7165 0 1 1 0 594.28 Z" class="st3"/>
		</g>
		<g id="shape30-31" v:mID="30" v:groupContext="shape" transform="translate(240.75,-591.75)">
			<title>Rectangle.30</title>
			<v:userDefs>
				<v:ud v:nameU="visVersion" v:val="VT0(15):26"/>
			</v:userDefs>
			<g id="shadow30-32" v:groupContext="shadow" v:shadowOffsetX="0.345598" v:shadowOffsetY="-1.97279" v:shadowType="1"
					transform="matrix(1,0,0,1,0.345598,1.97279)" class="st1">
				<rect x="0" y="594" width="9" height="18" class="st2"/>
			</g>
			<rect x="0" y="594" width="9" height="18" class="st3"/>
		</g>
		<g id="shape33-36" v:mID="33" v:groupContext="shape" transform="translate(240.75,-537.75)">
			<title>Rectangle.33</title>
			<v:userDefs>
				<v:ud v:nameU="visVersion" v:val="VT0(15):26"/>
			</v:userDefs>
			<g id="shadow33-37" v:groupContext="shadow" v:shadowOffsetX="0.345598" v:shadowOffsetY="-1.97279" v:shadowType="1"
					transform="matrix(1,0,0,1,0.345598,1.97279)" class="st1">
				<rect x="0" y="594" width="9" height="18" class="st2"/>
			</g>
			<rect x="0" y="594" width="9" height="18" class="st3"/>
		</g>
		<g id="shape35-41" v:mID="35" v:groupContext="shape" transform="translate(303.75,-537.75)">
			<title>Rectangle.35</title>
			<v:userDefs>
				<v:ud v:nameU="visVersion" v:val="VT0(15):26"/>
			</v:userDefs>
			<g id="shadow35-42" v:groupContext="shadow" v:shadowOffsetX="0.345598" v:shadowOffsetY="-1.97279" v:shadowType="1"
					transform="matrix(1,0,0,1,0.345598,1.97279)" class="st1">
				<rect x="0" y="594" width="9" height="18" class="st2"/>
			</g>
			<rect x="0" y="594" width="9" height="18" class="st3"/>
		</g>
		<g id="shape37-46" v:mID="37" v:groupContext="shape" transform="translate(303.75,-591.75)">
			<title>Rectangle.37</title>
			<v:userDefs>
				<v:ud v:nameU="visVersion" v:val="VT0(15):26"/>
			</v:userDefs>
			<g id="shadow37-47" v:groupContext="shadow" v:shadowOffsetX="0.345598" v:shadowOffsetY="-1.97279" v:shadowType="1"
					transform="matrix(1,0,0,1,0.345598,1.97279)" class="st1">
				<rect x="0" y="594" width="9" height="18" class="st2"/>
			</g>
			<rect x="0" y="594" width="9" height="18" class="st3"/>
		</g>
		<g id="shape41-51" v:mID="41" v:groupContext="shape" transform="translate(312.75,-596.25)">
			<title>Rectangle.41</title>
			<v:userDefs>
				<v:ud v:nameU="visVersion" v:val="VT0(15):26"/>
			</v:userDefs>
			<g id="shadow41-52" v:groupContext="shadow" v:shadowOffsetX="0.345598" v:shadowOffsetY="-1.97279" v:shadowType="1"
					transform="matrix(1,0,0,1,0.345598,1.97279)" class="st1">
				<rect x="0" y="598.5" width="9" height="13.5" class="st2"/>
			</g>
			<rect x="0" y="598.5" width="9" height="13.5" class="st3"/>
		</g>
		<g id="shape2001-56" v:mID="2001" v:groupContext="shape" transform="translate(303.75,614.25) rotate(180)">
			<title>Right Triangle.2001</title>
			<v:userDefs>
				<v:ud v:nameU="visVersion" v:val="VT0(15):26"/>
			</v:userDefs>
			<g id="shadow2001-57" v:groupContext="shadow" v:shadowOffsetX="0.345598" v:shadowOffsetY="-1.97279" v:shadowType="1"
					transform="matrix(1,0,0,1,-0.345598,-1.97279)" class="st1">
				<path d="M0 612 L18 612 L0 594 L0 612 Z" class="st2"/>
			</g>
			<path d="M0 612 L18 612 L0 594 L0 612 Z" class="st3"/>
		</g>
		<g id="shape2005-61" v:mID="2005" v:groupContext="shape" transform="translate(-308.25,74.25) rotate(-90)">
			<title>Right Triangle.2005</title>
			<v:userDefs>
				<v:ud v:nameU="visVersion" v:val="VT0(15):26"/>
			</v:userDefs>
			<g id="shadow2005-62" v:groupContext="shadow" v:shadowOffsetX="0.345598" v:shadowOffsetY="-1.97279" v:shadowType="1"
					transform="matrix(1,0,0,1,-1.97279,0.345598)" class="st1">
				<path d="M0 612 L18 612 L0 594 L0 612 Z" class="st2"/>
			</g>
			<path d="M0 612 L18 612 L0 594 L0 612 Z" class="st3"/>
		</g>
		<g id="shape2006-66" v:mID="2006" v:groupContext="shape" transform="translate(249.75,-537.75)">
			<title>Right Triangle.2006</title>
			<v:userDefs>
				<v:ud v:nameU="visVersion" v:val="VT0(15):26"/>
			</v:userDefs>
			<g id="shadow2006-67" v:groupContext="shadow" v:shadowOffsetX="0.345598" v:shadowOffsetY="-1.97279" v:shadowType="1"
					transform="matrix(1,0,0,1,0.345598,1.97279)" class="st1">
				<path d="M0 612 L18 612 L0 594 L0 612 Z" class="st2"/>
			</g>
			<path d="M0 612 L18 612 L0 594 L0 612 Z" class="st3"/>
		</g>
		<g id="shape2007-71" v:mID="2007" v:groupContext="shape" transform="translate(861.75,2.25) rotate(90)">
			<title>Right Triangle.2007</title>
			<v:userDefs>
				<v:ud v:nameU="visVersion" v:val="VT0(15):26"/>
			</v:userDefs>
			<g id="shadow2007-72" v:groupContext="shadow" v:shadowOffsetX="0.345598" v:shadowOffsetY="-1.97279" v:shadowType="1"
					transform="matrix(1,0,0,1,1.97279,-0.345598)" class="st1">
				<path d="M0 612 L18 612 L0 594 L0 612 Z" class="st2"/>
			</g>
			<path d="M0 612 L18 612 L0 594 L0 612 Z" class="st3"/>
		</g>
		<g id="shape2008-76" v:mID="2008" v:groupContext="shape" transform="translate(312.75,-537.75)">
			<title>Rectangle.2008</title>
			<v:userDefs>
				<v:ud v:nameU="visVersion" v:val="VT0(15):26"/>
			</v:userDefs>
			<g id="shadow2008-77" v:groupContext="shadow" v:shadowOffsetX="0.345598" v:shadowOffsetY="-1.97279" v:shadowType="1"
					transform="matrix(1,0,0,1,0.345598,1.97279)" class="st1">
				<rect x="0" y="598.5" width="9" height="13.5" class="st2"/>
			</g>
			<rect x="0" y="598.5" width="9" height="13.5" class="st3"/>
		</g>
		<g id="shape2009-81" v:mID="2009" v:groupContext="shape" transform="translate(231.75,-537.75)">
			<title>Rectangle.2009</title>
			<v:userDefs>
				<v:ud v:nameU="visVersion" v:val="VT0(15):26"/>
			</v:userDefs>
			<g id="shadow2009-82" v:groupContext="shadow" v:shadowOffsetX="0.345598" v:shadowOffsetY="-1.97279" v:shadowType="1"
					transform="matrix(1,0,0,1,0.345598,1.97279)" class="st1">
				<rect x="0" y="598.5" width="9" height="13.5" class="st2"/>
			</g>
			<rect x="0" y="598.5" width="9" height="13.5" class="st3"/>
		</g>
		<g id="shape2010-86" v:mID="2010" v:groupContext="shape" transform="translate(231.75,-596.25)">
			<title>Rectangle.2010</title>
			<v:userDefs>
				<v:ud v:nameU="visVersion" v:val="VT0(15):26"/>
			</v:userDefs>
			<g id="shadow2010-87" v:groupContext="shadow" v:shadowOffsetX="0.345598" v:shadowOffsetY="-1.97279" v:shadowType="1"
					transform="matrix(1,0,0,1,0.345598,1.97279)" class="st1">
				<rect x="0" y="598.5" width="9" height="13.5" class="st2"/>
			</g>
			<rect x="0" y="598.5" width="9" height="13.5" class="st3"/>
		</g>
	</g>
</svg>
