<?xml version="1.0" encoding="UTF-8" standalone="no"?>
<!DOCTYPE svg PUBLIC "-//W3C//DTD SVG 1.1//EN" "http://www.w3.org/Graphics/SVG/1.1/DTD/svg11.dtd">
<!-- Generated by Microsoft Visio, SVG Export YAxis_PulleyPlates.svg Page-1 -->
<svg xmlns="http://www.w3.org/2000/svg" xmlns:xlink="http://www.w3.org/1999/xlink" xmlns:ev="http://www.w3.org/2001/xml-events"
		xmlns:v="http://schemas.microsoft.com/visio/2003/SVGExtensions/" width="8.5in" height="11in" viewBox="0 0 612 792"
		xml:space="preserve" color-interpolation-filters="sRGB" class="st3">
	<v:documentProperties v:langID="1033" v:viewMarkup="false">
		<v:userDefs>
			<v:ud v:nameU="msvNoAutoConnect" v:val="VT0(1):26"/>
		</v:userDefs>
	</v:documentProperties>

	<style type="text/css">
	<![CDATA[
		.st1 {fill:none;stroke:#000000;stroke-linecap:round;stroke-linejoin:round;stroke-width:0.75}
		.st2 {fill:#ffffff;stroke:#000000;stroke-linecap:round;stroke-linejoin:round;stroke-width:0.75}
		.st3 {fill:none;fill-rule:evenodd;font-size:12px;overflow:visible;stroke-linecap:square;stroke-miterlimit:3}
	]]>
	</style>

	<g v:mID="0" v:index="1" v:groupContext="foregroundPage">
		<title>Page-1</title>
		<v:pageProperties v:drawingScale="1" v:pageScale="1" v:drawingUnits="19" v:shadowOffsetX="9" v:shadowOffsetY="-9"/>
		<g id="shape1-1" v:mID="1" v:groupContext="shape" transform="translate(0,-738)">
			<title>Rectangle</title>
			<v:userDefs>
				<v:ud v:nameU="visVersion" v:val="VT0(15):26"/>
			</v:userDefs>
			<rect x="0" y="738" width="144" height="54" class="st1"/>
		</g>
		<g id="shape4-3" v:mID="4" v:groupContext="shape" transform="translate(27,-756)">
			<title>Circle.4</title>
			<v:userDefs>
				<v:ud v:nameU="visVersion" v:val="VT0(15):26"/>
			</v:userDefs>
			<path d="M0 783 A9 9 0 0 1 18 783 A9 9 0 1 1 0 783 Z" class="st1"/>
		</g>
		<g id="shape5-5" v:mID="5" v:groupContext="shape" transform="translate(99,-756)">
			<title>Circle.5</title>
			<v:userDefs>
				<v:ud v:nameU="visVersion" v:val="VT0(15):26"/>
			</v:userDefs>
			<path d="M0 783 A9 9 0 0 1 18 783 A9 9 0 1 1 0 783 Z" class="st1"/>
		</g>
		<g id="shape1000-7" v:mID="1000" v:groupContext="shape" transform="translate(63,-756)">
			<title>Circle.1000</title>
			<v:userDefs>
				<v:ud v:nameU="visVersion" v:val="VT0(15):26"/>
			</v:userDefs>
			<path d="M0 783 A9 9 0 0 1 18 783 A9 9 0 1 1 0 783 Z" class="st1"/>
		</g>
		<g id="shape1004-9" v:mID="1004" v:groupContext="shape" transform="translate(0,-513)">
			<title>Rectangle.1004</title>
			<v:userDefs>
				<v:ud v:nameU="visVersion" v:val="VT0(15):26"/>
			</v:userDefs>
			<rect x="0" y="576" width="144" height="216" class="st1"/>
		</g>
		<g id="shape1005-11" v:mID="1005" v:groupContext="shape" transform="translate(47.25,-596.25)">
			<title>Circle</title>
			<v:userDefs>
				<v:ud v:nameU="visVersion" v:val="VT0(15):26"/>
			</v:userDefs>
			<path d="M0 767.25 A24.75 24.75 0 0 1 49.5 767.25 A24.75 24.75 0 1 1 0 767.25 Z" class="st1"/>
		</g>
		<g id="shape1006-13" v:mID="1006" v:groupContext="shape" transform="translate(63,-693)">
			<title>Circle.1006</title>
			<v:userDefs>
				<v:ud v:nameU="visVersion" v:val="VT0(15):26"/>
			</v:userDefs>
			<path d="M0 783 A9 9 0 0 1 18 783 A9 9 0 1 1 0 783 Z" class="st1"/>
		</g>
		<g id="shape1007-15" v:mID="1007" v:groupContext="shape" transform="translate(27,-531)">
			<title>Circle.6</title>
			<v:userDefs>
				<v:ud v:nameU="visVersion" v:val="VT0(15):26"/>
			</v:userDefs>
			<path d="M0 783 A9 9 0 0 1 18 783 A9 9 0 1 1 0 783 Z" class="st1"/>
		</g>
		<g id="shape1008-17" v:mID="1008" v:groupContext="shape" transform="translate(99,-531)">
			<title>Circle.7</title>
			<v:userDefs>
				<v:ud v:nameU="visVersion" v:val="VT0(15):26"/>
			</v:userDefs>
			<path d="M0 783 A9 9 0 0 1 18 783 A9 9 0 1 1 0 783 Z" class="st1"/>
		</g>
		<g id="shape1014-19" v:mID="1014" v:groupContext="shape" transform="translate(99,-693)">
			<title>Circle.1014</title>
			<v:userDefs>
				<v:ud v:nameU="visVersion" v:val="VT0(15):26"/>
			</v:userDefs>
			<path d="M0 783 A9 9 0 0 1 18 783 A9 9 0 1 1 0 783 Z" class="st1"/>
		</g>
		<g id="shape1015-21" v:mID="1015" v:groupContext="shape" transform="translate(27,-693)">
			<title>Circle.1015</title>
			<v:userDefs>
				<v:ud v:nameU="visVersion" v:val="VT0(15):26"/>
			</v:userDefs>
			<path d="M0 783 A9 9 0 0 1 18 783 A9 9 0 1 1 0 783 Z" class="st1"/>
		</g>
		<g id="shape1016-23" v:mID="1016" v:groupContext="shape" transform="translate(144,855) rotate(180)">
			<title>Right Triangle.1016</title>
			<v:userDefs>
				<v:ud v:nameU="visVersion" v:val="VT0(15):26"/>
			</v:userDefs>
			<path d="M0 792 L27 792 L0 765 L0 792 Z" class="st2"/>
		</g>
		<g id="shape1017-25" v:mID="1017" v:groupContext="shape" transform="translate(792,63) rotate(90)">
			<title>Right Triangle.1017</title>
			<v:userDefs>
				<v:ud v:nameU="visVersion" v:val="VT0(15):26"/>
			</v:userDefs>
			<path d="M0 792 L27 792 L0 765 L0 792 Z" class="st2"/>
		</g>
		<g id="shape1018-27" v:mID="1018" v:groupContext="shape" transform="translate(0,-288)">
			<title>Rectangle.1018</title>
			<v:userDefs>
				<v:ud v:nameU="visVersion" v:val="VT0(15):26"/>
			</v:userDefs>
			<rect x="0" y="576" width="144" height="216" class="st1"/>
		</g>
		<g id="shape1019-29" v:mID="1019" v:groupContext="shape" transform="translate(47.25,-371.25)">
			<title>Circle.1019</title>
			<v:userDefs>
				<v:ud v:nameU="visVersion" v:val="VT0(15):26"/>
			</v:userDefs>
			<path d="M0 767.25 A24.75 24.75 0 0 1 49.5 767.25 A24.75 24.75 0 1 1 0 767.25 Z" class="st1"/>
		</g>
		<g id="shape1021-31" v:mID="1021" v:groupContext="shape" transform="translate(27,-306)">
			<title>Circle.1021</title>
			<v:userDefs>
				<v:ud v:nameU="visVersion" v:val="VT0(15):26"/>
			</v:userDefs>
			<path d="M0 783 A9 9 0 0 1 18 783 A9 9 0 1 1 0 783 Z" class="st1"/>
		</g>
		<g id="shape1022-33" v:mID="1022" v:groupContext="shape" transform="translate(99,-306)">
			<title>Circle.1022</title>
			<v:userDefs>
				<v:ud v:nameU="visVersion" v:val="VT0(15):26"/>
			</v:userDefs>
			<path d="M0 783 A9 9 0 0 1 18 783 A9 9 0 1 1 0 783 Z" class="st1"/>
		</g>
		<g id="shape1028-35" v:mID="1028" v:groupContext="shape" transform="translate(99,-468)">
			<title>Circle.1028</title>
			<v:userDefs>
				<v:ud v:nameU="visVersion" v:val="VT0(15):26"/>
			</v:userDefs>
			<path d="M0 783 A9 9 0 0 1 18 783 A9 9 0 1 1 0 783 Z" class="st1"/>
		</g>
		<g id="shape1029-37" v:mID="1029" v:groupContext="shape" transform="translate(27,-468)">
			<title>Circle.1029</title>
			<v:userDefs>
				<v:ud v:nameU="visVersion" v:val="VT0(15):26"/>
			</v:userDefs>
			<path d="M0 783 A9 9 0 0 1 18 783 A9 9 0 1 1 0 783 Z" class="st1"/>
		</g>
		<g id="shape1030-39" v:mID="1030" v:groupContext="shape" transform="translate(144,1080) rotate(180)">
			<title>Right Triangle.1030</title>
			<v:userDefs>
				<v:ud v:nameU="visVersion" v:val="VT0(15):26"/>
			</v:userDefs>
			<path d="M0 792 L27 792 L0 765 L0 792 Z" class="st2"/>
		</g>
		<g id="shape1031-41" v:mID="1031" v:groupContext="shape" transform="translate(792,288) rotate(90)">
			<title>Right Triangle.1031</title>
			<v:userDefs>
				<v:ud v:nameU="visVersion" v:val="VT0(15):26"/>
			</v:userDefs>
			<path d="M0 792 L27 792 L0 765 L0 792 Z" class="st2"/>
		</g>
		<g id="shape1032-43" v:mID="1032" v:groupContext="shape" transform="translate(54,-450)">
			<title>Rectangle.1032</title>
			<v:userDefs>
				<v:ud v:nameU="visVersion" v:val="VT0(15):26"/>
			</v:userDefs>
			<rect x="0" y="738" width="36" height="54" class="st1"/>
		</g>
	</g>
</svg>
