<?xml version="1.0" encoding="UTF-8" standalone="no"?>
<!DOCTYPE svg PUBLIC "-//W3C//DTD SVG 1.1//EN" "http://www.w3.org/Graphics/SVG/1.1/DTD/svg11.dtd">
<!-- Generated by Microsoft Visio, SVG Export YAxis_MotorPlates.svg Page-1 -->
<svg xmlns="http://www.w3.org/2000/svg" xmlns:xlink="http://www.w3.org/1999/xlink" xmlns:ev="http://www.w3.org/2001/xml-events"
		xmlns:v="http://schemas.microsoft.com/visio/2003/SVGExtensions/" width="8.5in" height="11in" viewBox="0 0 612 792"
		xml:space="preserve" color-interpolation-filters="sRGB" class="st3">
	<v:documentProperties v:langID="1033" v:viewMarkup="false">
		<v:userDefs>
			<v:ud v:nameU="msvNoAutoConnect" v:val="VT0(1):26"/>
		</v:userDefs>
	</v:documentProperties>

	<style type="text/css">
	<![CDATA[
		.st1 {fill:none;stroke:#000000;stroke-linecap:round;stroke-linejoin:round;stroke-width:0.75}
		.st2 {fill:#ffffff;stroke:#000000;stroke-linecap:round;stroke-linejoin:round;stroke-width:0.75}
		.st3 {fill:none;fill-rule:evenodd;font-size:12px;overflow:visible;stroke-linecap:square;stroke-miterlimit:3}
	]]>
	</style>

	<g v:mID="0" v:index="1" v:groupContext="foregroundPage">
		<title>Page-1</title>
		<v:pageProperties v:drawingScale="1" v:pageScale="1" v:drawingUnits="19" v:shadowOffsetX="9" v:shadowOffsetY="-9"/>
		<g id="shape1-1" v:mID="1" v:groupContext="shape" transform="translate(0,-540)">
			<title>Rectangle</title>
			<v:userDefs>
				<v:ud v:nameU="visVersion" v:val="VT0(15):26"/>
			</v:userDefs>
			<rect x="0" y="540" width="180" height="252" class="st1"/>
		</g>
		<g id="shape2-3" v:mID="2" v:groupContext="shape" transform="translate(54,-630)">
			<title>Circle</title>
			<v:userDefs>
				<v:ud v:nameU="visVersion" v:val="VT0(15):26"/>
			</v:userDefs>
			<path d="M0 756 A36 36 0 0 1 72 756 A36 36 0 1 1 0 756 Z" class="st1"/>
		</g>
		<g id="shape4-5" v:mID="4" v:groupContext="shape" transform="translate(81,-756)">
			<title>Circle.4</title>
			<v:userDefs>
				<v:ud v:nameU="visVersion" v:val="VT0(15):26"/>
			</v:userDefs>
			<path d="M0 783 A9 9 0 0 1 18 783 A9 9 0 1 1 0 783 Z" class="st1"/>
		</g>
		<g id="shape6-7" v:mID="6" v:groupContext="shape" transform="translate(45,-558)">
			<title>Circle.6</title>
			<v:userDefs>
				<v:ud v:nameU="visVersion" v:val="VT0(15):26"/>
			</v:userDefs>
			<path d="M0 783 A9 9 0 0 1 18 783 A9 9 0 1 1 0 783 Z" class="st1"/>
		</g>
		<g id="shape7-9" v:mID="7" v:groupContext="shape" transform="translate(117,-558)">
			<title>Circle.7</title>
			<v:userDefs>
				<v:ud v:nameU="visVersion" v:val="VT0(15):26"/>
			</v:userDefs>
			<path d="M0 783 A9 9 0 0 1 18 783 A9 9 0 1 1 0 783 Z" class="st1"/>
		</g>
		<g id="shape1007-11" v:mID="1007" v:groupContext="shape" transform="translate(149.526,-592.301)">
			<title>Circle.1007</title>
			<v:userDefs>
				<v:ud v:nameU="visVersion" v:val="VT0(15):26"/>
			</v:userDefs>
			<path d="M0 784.91 A7.0866 7.0866 0 0 1 14.17 784.91 A7.0866 7.0866 0 1 1 0 784.91 Z" class="st1"/>
		</g>
		<g id="shape1009-13" v:mID="1009" v:groupContext="shape" transform="translate(16.3008,-592.301)">
			<title>Circle.1009</title>
			<v:userDefs>
				<v:ud v:nameU="visVersion" v:val="VT0(15):26"/>
			</v:userDefs>
			<path d="M0 784.91 A7.0866 7.0866 0 0 1 14.17 784.91 A7.0866 7.0866 0 1 1 0 784.91 Z" class="st1"/>
		</g>
		<g id="shape1010-15" v:mID="1010" v:groupContext="shape" transform="translate(149.526,-725.526)">
			<title>Circle.1010</title>
			<v:userDefs>
				<v:ud v:nameU="visVersion" v:val="VT0(15):26"/>
			</v:userDefs>
			<path d="M0 784.91 A7.0866 7.0866 0 0 1 14.17 784.91 A7.0866 7.0866 0 1 1 0 784.91 Z" class="st1"/>
		</g>
		<g id="shape1011-17" v:mID="1011" v:groupContext="shape" transform="translate(16.3008,-725.526)">
			<title>Circle.1011</title>
			<v:userDefs>
				<v:ud v:nameU="visVersion" v:val="VT0(15):26"/>
			</v:userDefs>
			<path d="M0 784.91 A7.0866 7.0866 0 0 1 14.17 784.91 A7.0866 7.0866 0 1 1 0 784.91 Z" class="st1"/>
		</g>
		<g id="shape1015-19" v:mID="1015" v:groupContext="shape" transform="translate(0,-481.5)">
			<title>Rectangle.1015</title>
			<v:userDefs>
				<v:ud v:nameU="visVersion" v:val="VT0(15):26"/>
			</v:userDefs>
			<rect x="0" y="738" width="144" height="54" class="st1"/>
		</g>
		<g id="shape1016-21" v:mID="1016" v:groupContext="shape" transform="translate(27,-499.5)">
			<title>Circle.1016</title>
			<v:userDefs>
				<v:ud v:nameU="visVersion" v:val="VT0(15):26"/>
			</v:userDefs>
			<path d="M0 783 A9 9 0 0 1 18 783 A9 9 0 1 1 0 783 Z" class="st1"/>
		</g>
		<g id="shape1017-23" v:mID="1017" v:groupContext="shape" transform="translate(99,-499.5)">
			<title>Circle.1017</title>
			<v:userDefs>
				<v:ud v:nameU="visVersion" v:val="VT0(15):26"/>
			</v:userDefs>
			<path d="M0 783 A9 9 0 0 1 18 783 A9 9 0 1 1 0 783 Z" class="st1"/>
		</g>
		<g id="shape1018-25" v:mID="1018" v:groupContext="shape" transform="translate(63,-499.5)">
			<title>Circle.1018</title>
			<v:userDefs>
				<v:ud v:nameU="visVersion" v:val="VT0(15):26"/>
			</v:userDefs>
			<path d="M0 783 A9 9 0 0 1 18 783 A9 9 0 1 1 0 783 Z" class="st1"/>
		</g>
		<g id="shape1028-27" v:mID="1028" v:groupContext="shape" transform="translate(85.5,-613.8)">
			<title>Rectangle.1028</title>
			<v:userDefs>
				<v:ud v:nameU="visVersion" v:val="VT0(15):26"/>
			</v:userDefs>
			<rect x="0" y="774" width="9" height="18" class="st1"/>
		</g>
		<g id="shape1029-29" v:mID="1029" v:groupContext="shape" transform="translate(72,-595.8)">
			<title>Rectangle.1029</title>
			<v:userDefs>
				<v:ud v:nameU="visVersion" v:val="VT0(15):26"/>
			</v:userDefs>
			<rect x="0" y="774" width="36" height="18" class="st1"/>
		</g>
		<g id="shape1030-31" v:mID="1030" v:groupContext="shape" transform="translate(117,-756)">
			<title>Circle.1030</title>
			<v:userDefs>
				<v:ud v:nameU="visVersion" v:val="VT0(15):26"/>
			</v:userDefs>
			<path d="M0 783 A9 9 0 0 1 18 783 A9 9 0 1 1 0 783 Z" class="st1"/>
		</g>
		<g id="shape1031-33" v:mID="1031" v:groupContext="shape" transform="translate(45,-756)">
			<title>Circle.1031</title>
			<v:userDefs>
				<v:ud v:nameU="visVersion" v:val="VT0(15):26"/>
			</v:userDefs>
			<path d="M0 783 A9 9 0 0 1 18 783 A9 9 0 1 1 0 783 Z" class="st1"/>
		</g>
		<g id="shape1032-35" v:mID="1032" v:groupContext="shape" transform="translate(792,0) rotate(90)">
			<title>Right Triangle.1016</title>
			<v:userDefs>
				<v:ud v:nameU="visVersion" v:val="VT0(15):26"/>
			</v:userDefs>
			<path d="M0 792 L27 792 L0 765 L0 792 Z" class="st2"/>
		</g>
		<g id="shape1033-37" v:mID="1033" v:groupContext="shape" transform="translate(180,792) rotate(180)">
			<title>Right Triangle.1033</title>
			<v:userDefs>
				<v:ud v:nameU="visVersion" v:val="VT0(15):26"/>
			</v:userDefs>
			<path d="M0 792 L27 792 L0 765 L0 792 Z" class="st2"/>
		</g>
		<g id="shape2000-39" v:mID="2000" v:groupContext="shape" transform="translate(0,-225)">
			<title>Rectangle.2000</title>
			<v:userDefs>
				<v:ud v:nameU="visVersion" v:val="VT0(15):26"/>
			</v:userDefs>
			<rect x="0" y="540" width="144" height="252" class="st1"/>
		</g>
		<g id="shape2003-41" v:mID="2003" v:groupContext="shape" transform="translate(27,-243)">
			<title>Circle.2003</title>
			<v:userDefs>
				<v:ud v:nameU="visVersion" v:val="VT0(15):26"/>
			</v:userDefs>
			<path d="M0 783 A9 9 0 0 1 18 783 A9 9 0 1 1 0 783 Z" class="st1"/>
		</g>
		<g id="shape2004-43" v:mID="2004" v:groupContext="shape" transform="translate(99,-243)">
			<title>Circle.2004</title>
			<v:userDefs>
				<v:ud v:nameU="visVersion" v:val="VT0(15):26"/>
			</v:userDefs>
			<path d="M0 783 A9 9 0 0 1 18 783 A9 9 0 1 1 0 783 Z" class="st1"/>
		</g>
		<g id="shape2017-45" v:mID="2017" v:groupContext="shape" transform="translate(99,-441)">
			<title>Circle.2017</title>
			<v:userDefs>
				<v:ud v:nameU="visVersion" v:val="VT0(15):26"/>
			</v:userDefs>
			<path d="M0 783 A9 9 0 0 1 18 783 A9 9 0 1 1 0 783 Z" class="st1"/>
		</g>
		<g id="shape2018-47" v:mID="2018" v:groupContext="shape" transform="translate(27,-441)">
			<title>Circle.2018</title>
			<v:userDefs>
				<v:ud v:nameU="visVersion" v:val="VT0(15):26"/>
			</v:userDefs>
			<path d="M0 783 A9 9 0 0 1 18 783 A9 9 0 1 1 0 783 Z" class="st1"/>
		</g>
		<g id="shape2019-49" v:mID="2019" v:groupContext="shape" transform="translate(792,315) rotate(90)">
			<title>Right Triangle.2019</title>
			<v:userDefs>
				<v:ud v:nameU="visVersion" v:val="VT0(15):26"/>
			</v:userDefs>
			<path d="M0 792 L27 792 L0 765 L0 792 Z" class="st2"/>
		</g>
		<g id="shape2020-51" v:mID="2020" v:groupContext="shape" transform="translate(144,1107) rotate(180)">
			<title>Right Triangle.2020</title>
			<v:userDefs>
				<v:ud v:nameU="visVersion" v:val="VT0(15):26"/>
			</v:userDefs>
			<path d="M0 792 L27 792 L0 765 L0 792 Z" class="st2"/>
		</g>
		<g id="shape2021-53" v:mID="2021" v:groupContext="shape" transform="translate(54,-423)">
			<title>Rectangle.1032</title>
			<v:userDefs>
				<v:ud v:nameU="visVersion" v:val="VT0(15):26"/>
			</v:userDefs>
			<rect x="0" y="738" width="36" height="54" class="st1"/>
		</g>
	</g>
</svg>
